<svg id="Layer_1" data-name="Layer 1" xmlns="http://www.w3.org/2000/svg" viewBox="0 0 352 92"><defs><style>.cls-1{fill:#595757}.cls-1,.cls-3{fill-rule:evenodd}.cls-3,.cls-4{fill:#aec905}</style></defs><path class="cls-1" d="M156.24 51.61h-.5A7.41 7.41 0 0 1 150.51 39a7.11 7.11 0 0 1 5.24-2.18h.49v1.33h-.49a6.08 6.08 0 1 0 0 12.16h.49z"/><path style="fill:#595757" d="M159.12 34h1.42v17.46h-1.42z"/><path class="cls-1" d="M169.54 50.21a6 6 0 1 0-4.25-1.75 5.79 5.79 0 0 0 4.25 1.75zm6-1.59a7.34 7.34 0 0 1-.77.82 7.42 7.42 0 0 1-12.66-5.24 7.44 7.44 0 0 1 7.43-7.42A7.43 7.43 0 0 1 177 44.2v7.26h-1.41zM184.92 38.63a1.54 1.54 0 0 0-1.13-.46 1.47 1.47 0 0 0-1.1.46 1.56 1.56 0 0 0 0 2.21 1.94 1.94 0 0 0 1.31.43 5.48 5.48 0 0 1 4.11 2.26 5 5 0 0 1 1 3 4.93 4.93 0 0 1-1.55 3.66 5.28 5.28 0 0 1-7.4 0 5.17 5.17 0 0 1-1.58-3.8h1.4a3.89 3.89 0 0 0 1.17 2.81 3.73 3.73 0 0 0 2.7 1.09 3.67 3.67 0 0 0 2.71-1.12 3.72 3.72 0 0 0 0-5.35 3.94 3.94 0 0 0-2.6-1.19 3.3 3.3 0 0 1-2.07-.64 1 1 0 0 1-.17-.15 2.78 2.78 0 0 1-.87-2.09 3 3 0 0 1 3-3 2.93 2.93 0 0 1 2.13.87l.54.54-1.2.91a1.38 1.38 0 0 0-.4-.44zM197 38.63a1.52 1.52 0 0 0-1.12-.46 1.48 1.48 0 0 0-1.11.46 1.56 1.56 0 0 0 0 2.21 2 2 0 0 0 1.31.43 5.48 5.48 0 0 1 4.11 2.26 5 5 0 0 1 1 3 4.93 4.93 0 0 1-1.55 3.66 5.28 5.28 0 0 1-7.4 0 5.17 5.17 0 0 1-1.58-3.8h1.41a3.84 3.84 0 0 0 1.16 2.81 3.73 3.73 0 0 0 2.7 1.09 3.67 3.67 0 0 0 2.71-1.12 3.72 3.72 0 0 0 0-5.35 3.94 3.94 0 0 0-2.6-1.19A3.3 3.3 0 0 1 194 42a1 1 0 0 1-.17-.15 2.78 2.78 0 0 1-.87-2.09 3 3 0 0 1 3-3 2.92 2.92 0 0 1 2.12.87l.54.54-1.2.91a1.38 1.38 0 0 0-.42-.45zM204.17 51.45h-1.43V37h1.43v14.45zm0-16.1h-1.43V34h1.43zM214.47 51.61h-.49A7.41 7.41 0 0 1 208.74 39a7.14 7.14 0 0 1 5.26-2.2h.48v1.33H214a6.08 6.08 0 1 0 0 12.16h.48z"/><path class="cls-3" d="M118.76 69.88c.43-.4.86-.82 1.29-1.24a35.53 35.53 0 0 0 10.81-26.08 35.46 35.46 0 0 0-10.81-26c-.43-.43-.86-.84-1.29-1.24v9.79a29.16 29.16 0 0 1 5.48 17.48 29.26 29.26 0 0 1-5.48 17.52v9.8zM144.6 69.88c-.44-.4-.87-.82-1.29-1.24a35.54 35.54 0 0 1-10.82-26.08 35.47 35.47 0 0 1 10.82-26c.42-.43.85-.84 1.29-1.24v9.79a29.17 29.17 0 0 0-5.49 17.48 29.27 29.27 0 0 0 5.49 17.52zM149.53 60.39v-4.56h.47v4.56zm3.83-3.15c-.07-.17-.12-.34-.18-.52s-.11-.35-.17-.53v4.2h-.41v-4.56h.68l.94 2.59c.08.2.14.4.2.59s.12.37.17.54V55.83h.4v4.56h-.46l-1.14-3.15zm4.76 3.15v-4.17h-.92v-.39h2.29v.39h-.91v4.17zm3.6 0v-4.56h2.05v.42h-1.58v1.57h1.16v.42h-1.16V60h1.64v.42zm4.86-2.57h.4a1.06 1.06 0 0 0 .7-.19.74.74 0 0 0 .24-.6.77.77 0 0 0-.23-.6 1.09 1.09 0 0 0-.71-.2h-.4v1.59zm-.46 2.57v-4.56h.88a1.7 1.7 0 0 1 1.1.3 1.11 1.11 0 0 1 .37.9 1.28 1.28 0 0 1-.19.7 1 1 0 0 1-.53.39l.74 2.27h-.5l-.69-2.17h-.67v2.16zm4.72 0v-4.56h.47v4.56zm4.17.09a1 1 0 0 1-.93-.6 5.06 5.06 0 0 1 0-3.54 1 1 0 0 1 1.87 0 5.06 5.06 0 0 1 0 3.54 1 1 0 0 1-.94.6zm0-4.31a.63.63 0 0 0-.58.44 4 4 0 0 0-.18 1.39 4.88 4.88 0 0 0 .18 1.57.59.59 0 0 0 1.16 0 6.17 6.17 0 0 0 0-3 .6.6 0 0 0-.58-.46zm4.16 1.65h.4a1.06 1.06 0 0 0 .7-.19.74.74 0 0 0 .24-.6.77.77 0 0 0-.23-.6 1.11 1.11 0 0 0-.71-.2h-.4v1.59zm-.46 2.57v-4.56h.82a1.71 1.71 0 0 1 1.11.3 1.1 1.1 0 0 1 .36.9 1.28 1.28 0 0 1-.18.7 1 1 0 0 1-.53.39l.74 2.27h-.5l-.69-2.17h-.67v2.16zm8.11 0v-4.56h1.91v.42h-1.45v1.57h1.11v.42h-1.11v2.15zm4.61-1.77h.95l-.48-2.39-.47 2.39zm-.83 1.77 1-4.56h.65l1 4.56h-.49l-.26-1.34h-1.15l-.27 1.34zm4.69-1.21h.44a1.06 1.06 0 0 0 .2.66.65.65 0 0 0 .52.22.6.6 0 0 0 .48-.21.77.77 0 0 0 .19-.55.94.94 0 0 0-.17-.54 3.39 3.39 0 0 0-.71-.65 2.73 2.73 0 0 1-.71-.68 1.21 1.21 0 0 1-.18-.66 1 1 0 0 1 .29-.73 1 1 0 0 1 .72-.29 1.07 1.07 0 0 1 .81.32 1.4 1.4 0 0 1 .31.91h-.43a1.14 1.14 0 0 0-.2-.63.57.57 0 0 0-.47-.21.6.6 0 0 0-.44.17.61.61 0 0 0-.17.46.82.82 0 0 0 .22.54 3.75 3.75 0 0 0 .47.4l.38.29a2.15 2.15 0 0 1 .55.61 1.37 1.37 0 0 1 .17.68 1.16 1.16 0 0 1-.31.86 1.18 1.18 0 0 1-1.65 0 1.37 1.37 0 0 1-.31-1zm4.71 1.21v-4.56h.47v2h1.32v-2h.47v4.56h-.47v-2.17h-1.32v2.17zm4.85 0v-4.56h.47v4.56zm4.18.09a1 1 0 0 1-.94-.6 5.06 5.06 0 0 1 0-3.54 1 1 0 0 1 .94-.6 1 1 0 0 1 .94.6 5.06 5.06 0 0 1 0 3.54 1 1 0 0 1-.94.6zm0-4.31a.61.61 0 0 0-.58.44 3.71 3.71 0 0 0-.19 1.39 4.88 4.88 0 0 0 .18 1.57.62.62 0 0 0 .59.48.61.61 0 0 0 .57-.46 5.86 5.86 0 0 0 0-3 .6.6 0 0 0-.57-.46zm4.45 1.07-.18-.52c-.06-.17-.11-.35-.17-.53v4.2h-.4v-4.56h.68l.94 2.59c.07.2.14.4.2.59s.12.37.17.54a2.73 2.73 0 0 1 0-.41v-3.31h.41v4.56h-.46z"/><path class="cls-4" d="M151.63 31.52V35h-.23a.16.16 0 0 1-.1 0 .19.19 0 0 1-.07-.06l-2-2.65a.49.49 0 0 1 0 .12V35h-.41v-3.48h.33l2 2.65v-2.73zM154.37 34.69a1.12 1.12 0 0 1-.2.17l-.24.12a1.1 1.1 0 0 1-.26.06 1.33 1.33 0 0 1-.28 0 1.2 1.2 0 0 1-.85-.34 1.32 1.32 0 0 1-.24-.42 1.62 1.62 0 0 1-.09-.57 1.51 1.51 0 0 1 .08-.48 1.05 1.05 0 0 1 .23-.4 1.19 1.19 0 0 1 .36-.26 1.3 1.3 0 0 1 .49-.09 1.07 1.07 0 0 1 .41.07 1 1 0 0 1 .55.57 1.36 1.36 0 0 1 .08.47.37.37 0 0 1 0 .14.12.12 0 0 1-.09 0h-1.66a1.52 1.52 0 0 0 .07.41.73.73 0 0 0 .16.29.69.69 0 0 0 .24.18.83.83 0 0 0 .32 0 1.09 1.09 0 0 0 .28 0l.21-.09a.47.47 0 0 0 .14-.08.26.26 0 0 1 .1 0 .11.11 0 0 1 .09.05zm-.37-1.17a.87.87 0 0 0-.05-.28.78.78 0 0 0-.12-.22.56.56 0 0 0-.2-.14.76.76 0 0 0-.27-.05.68.68 0 0 0-.5.18.89.89 0 0 0-.22.51zM158.34 32.55l-.8 2.48h-.35s-.07 0-.08-.08l-.55-1.68a.56.56 0 0 1 0-.12v-.11.11a.56.56 0 0 1 0 .12l-.68 1.73a.08.08 0 0 1-.09.08h-.33l-.81-2.48h.35a.11.11 0 0 1 .08 0v.06l.48 1.6a2.33 2.33 0 0 1 .06.33s0-.11.05-.16a1.09 1.09 0 0 1 .05-.17l.52-1.61.05-.06a.09.09 0 0 1 .07 0h.19a.1.1 0 0 1 .08 0 .13.13 0 0 1 0 .06l.51 1.61a1.09 1.09 0 0 1 0 .17v.16-.33l.49-1.6a.12.12 0 0 1 .05-.07h.08z"/></svg>