<svg id="Layer_1" data-name="Layer 1" xmlns="http://www.w3.org/2000/svg" viewBox="0 0 352 92"><path d="M102.9 70.05V66.9v-1.27a1.9 1.9 0 00-.2-.8 1 1 0 00-.68-.37 1.92 1.92 0 00-.34 0h-.36c-.11 0-.16 0-.16-.12s.11-.16.33-.16h7a5.55 5.55 0 00.88-.11.39.39 0 00.15-.06.29.29 0 01.14 0s.08.06.08.19a1.33 1.33 0 01-.06.31 3.44 3.44 0 00-.1.65v.66a3 3 0 000 .41 1.21 1.21 0 010 .28.66.66 0 01-.05.15c0 .05 0 .08-.09.08s-.16-.09-.16-.27v-.33a1.38 1.38 0 00-.11-.41 1 1 0 00-.36-.42 2.92 2.92 0 00-1.09-.27 3 3 0 00-.55 0h-2.25c-.09 0-.13.07-.13.21v5.65c0 .14 0 .21.13.21h3.25l.59-.09a.54.54 0 00.37-.2c.15-.18.26-.27.31-.27s.1.06.1.17a2 2 0 01-.06.36 6.66 6.66 0 00-.1.78v1.1a2 2 0 000 .21 2.28 2.28 0 010 .26c0 .09-.06.13-.13.13s-.14-.06-.14-.18v-.32a2 2 0 00-.07-.36 1.05 1.05 0 00-.27-.44 1.3 1.3 0 00-.8-.27h-2.92a.13.13 0 00-.15.15v5.3a4.31 4.31 0 00.11.86.94.94 0 00.35.51 1.49 1.49 0 00.71.25 9.57 9.57 0 001.21.06h1a3 3 0 001-.2 1.15 1.15 0 00.62-.5 2.9 2.9 0 00.31-1c0-.2.1-.31.18-.31a.1.1 0 01.11.11 1.27 1.27 0 010 .2v.32c0 .17 0 .36-.07.57s0 .42-.08.63-.06.36-.08.47a1.26 1.26 0 01-.13.3.4.4 0 01-.18.16 1.22 1.22 0 01-.31.06H102.1c-.22 0-.33-.06-.33-.17s0-.12.16-.12h.31a1.55 1.55 0 00.31-.06.54.54 0 00.42-.37 3.94 3.94 0 00.17-.76c0-.43.08-1 .09-1.81s0-1.65 0-2.63zM116.56 74.58v1.65c0 .46 0 .84.05 1.15a4.26 4.26 0 00.12.72.79.79 0 00.19.39 1.42 1.42 0 00.78.32 10.89 10.89 0 001.62.09 10 10 0 001.28-.07 1.36 1.36 0 00.89-.46 1.92 1.92 0 00.27-.46 2.07 2.07 0 00.16-.52c0-.15.09-.23.18-.23s.12.09.12.27a1.8 1.8 0 010 .27 4.32 4.32 0 01-.06.47c0 .18-.05.35-.08.54a3.26 3.26 0 01-.1.46 1.37 1.37 0 01-.09.25.3.3 0 01-.17.14l-.32.06h-.57c-1.26 0-2.3 0-3.13-.06h-2.23a4.19 4.19 0 00-.48 0h-1.04c-.19 0-.29 0-.29-.15s0-.14.15-.14h.27a1.06 1.06 0 00.28-.06.42.42 0 00.34-.3 4.08 4.08 0 00.13-.62 11.19 11.19 0 00.09-1.52v-7.96-.65a3 3 0 000-.44 1.93 1.93 0 00-.16-.68c-.08-.15-.28-.24-.58-.28a1 1 0 00-.29 0h-.32c-.1 0-.14 0-.14-.15s.09-.14.28-.14h4c.19 0 .28 0 .28.14s0 .13-.14.13h-.26a1.84 1.84 0 00-.33 0 .67.67 0 00-.52.29 1.94 1.94 0 00-.16.69V74.58zM127.52 74.58v2.8a4.42 4.42 0 00.11.72.79.79 0 00.2.39 1.42 1.42 0 00.77.32 10.89 10.89 0 001.62.09 9.77 9.77 0 001.28-.07 1.33 1.33 0 00.89-.46 2.35 2.35 0 00.28-.46 2.55 2.55 0 00.15-.52c0-.15.09-.23.19-.23s.12.09.12.27v.27c0 .14 0 .3-.06.47s-.06.35-.08.54a3.13 3.13 0 01-.11.46.66.66 0 01-.09.25.28.28 0 01-.16.14l-.32.06h-.57c-1.26 0-2.3 0-3.14-.06h-2.23a4 4 0 00-.47 0h-1.04c-.2 0-.29 0-.29-.15a.13.13 0 01.14-.14h.28a1.27 1.27 0 00.28-.06.41.41 0 00.33-.3 3.91 3.91 0 00.14-.62 13.13 13.13 0 00.09-1.52v-7.96-.65-.44a1.72 1.72 0 00-.17-.68c-.08-.15-.27-.24-.57-.28a1.15 1.15 0 00-.3 0h-.31a.13.13 0 01-.15-.15c0-.09.1-.14.29-.14h4c.2 0 .29 0 .29.14s0 .13-.14.13h-.27a1.84 1.84 0 00-.33 0 .71.71 0 00-.52.29 2 2 0 00-.15.69V74.58zM140 77.32c.18-.38.38-.85.61-1.42s.48-1.17.74-1.8l.79-1.94c.26-.65.51-1.27.72-1.85l.58-1.53c.16-.45.28-.77.35-1s.07-.26.11-.38a1.12 1.12 0 00.05-.27.63.63 0 00-.05-.22.32.32 0 00-.2-.15 1.11 1.11 0 00-.3 0h-.4q-.21 0-.21-.15c0-.09.14-.14.41-.14h3.18c.19 0 .29 0 .29.12s-.07.17-.21.17a2.88 2.88 0 00-.36 0 1 1 0 00-.5.18.7.7 0 00-.19.16 1.56 1.56 0 00-.22.26q-.12.18-.27.45c-.09.19-.2.43-.32.73-.06.12-.15.34-.28.64s-.28.68-.46 1.1-.38.89-.59 1.4l-.68 1.57c-.56 1.28-1 2.37-1.42 3.28s-.69 1.57-.89 2l-.51 1c-.08.17-.18.26-.27.26a.35.35 0 01-.29-.21c-.08-.15-.21-.43-.39-.85l-4.42-10.67c-.11-.25-.21-.45-.29-.61a1.52 1.52 0 00-.26-.36 1.21 1.21 0 00-.31-.21 2.54 2.54 0 00-.39-.13 2.18 2.18 0 00-.42 0h-.28a.11.11 0 01-.11-.06.3.3 0 010-.11c0-.08.16-.12.47-.12h3.76c.33 0 .49 0 .49.12s-.06.17-.18.17a2.11 2.11 0 00-.35 0 1.22 1.22 0 00-.31.06c-.09 0-.15.08-.17.13a.48.48 0 000 .18 1.62 1.62 0 00.14.54c.1.25.21.56.35.91zM151 74.54v2.25a14.06 14.06 0 00.07 1.52 2.11 2.11 0 00.14.62.6.6 0 00.51.3 3.06 3.06 0 00.45.06h.37c.1 0 .15 0 .15.14s-.1.15-.29.15h-4.04c-.19 0-.28 0-.28-.15a.13.13 0 01.14-.14h.28a1.07 1.07 0 00.27-.06.44.44 0 00.35-.3 2.55 2.55 0 00.13-.62c0-.36.06-.86.08-1.52s0-1.4 0-2.25v-5.73-.65-.44a1.66 1.66 0 00-.17-.67.58.58 0 00-.41-.27 1.17 1.17 0 00-.3 0h-.25c-.09 0-.14 0-.14-.15s.09-.14.28-.14H152c.19 0 .29 0 .29.14a.13.13 0 01-.15.15h-.2a1 1 0 00-.25 0 .68.68 0 00-.48.28 1.86 1.86 0 00-.15.68v6.82zM158.09 77.22c0 .36 0 .65.06.89a2.7 2.7 0 00.13.6.9.9 0 00.2.35.69.69 0 00.31.15 2.72 2.72 0 00.51.08h.39a.13.13 0 01.14.14q0 .15-.33.15h-3.64c-.19 0-.29 0-.29-.15s.05-.14.15-.14h.31a1.84 1.84 0 00.42-.08.53.53 0 00.27-.16.84.84 0 00.15-.37 3.48 3.48 0 00.07-.65v-11a2.12 2.12 0 01.07-.7c0-.12.1-.18.17-.18a.55.55 0 01.36.2l.34.34.61.64 1.29 1.36 1.76 1.85c.66.68 1.33 1.38 2 2.09.45.46.9.93 1.34 1.4l1.25 1.32 1 1.08.65.68-.18-8.72a4.59 4.59 0 00-.15-1.19.65.65 0 00-.53-.43 4 4 0 00-.51-.06 3.1 3.1 0 00-.37 0q-.1 0-.12-.06a.26.26 0 010-.11c0-.08.11-.12.34-.12h3.46q.33 0 .33.12a.25.25 0 010 .11.19.19 0 01-.15.06h-.17a1 1 0 00-.26 0 .75.75 0 00-.35.14.63.63 0 00-.19.28 2.05 2.05 0 00-.08.44v11.91a.32.32 0 010 .16.11.11 0 01-.07 0 .34.34 0 01-.15 0l-.23-.15-.39-.32-.6-.55-.55-.53c-.32-.3-.7-.69-1.15-1.14l-1.48-1.5c-.53-.54-1-1-1.51-1.54L161 72.34l-1.38-1.46-1.1-1.15-.66-.72zM181.52 70.05V66.9v-1.27a1.88 1.88 0 00-.21-.8 1 1 0 00-.67-.37 2.08 2.08 0 00-.34 0h-.36c-.11 0-.16 0-.16-.12s.11-.16.33-.16h4.23c.22 0 .33 0 .33.16s0 .12-.16.12H184a.82.82 0 00-.57.36 2.19 2.19 0 00-.19.81 4.41 4.41 0 000 .52v5.13h.08l.42-.45.81-.83 1-1 1.06-1.08.9-.93.58-.62c.29-.3.54-.58.77-.83a1.1 1.1 0 00.34-.65.42.42 0 00-.27-.43c-.12 0-.18-.11-.18-.16s.08-.14.24-.14h3.5c.21 0 .31 0 .31.14s-.07.14-.2.14a2.82 2.82 0 00-1.15.29 4.86 4.86 0 00-.56.31 5.24 5.24 0 00-.52.38c-.17.14-.34.3-.52.48l-.61.59-.48.47-.82.8-1 1-1 1c-.31.3-.57.57-.8.8s-.37.39-.44.48l.55.57 1 1 1.19 1.24 1.15 1.15 1 1.06.66.65 1.06 1c.28.26.53.47.75.64a7.21 7.21 0 00.6.41 5 5 0 00.65.31 3.49 3.49 0 00.78.21h.49c.17 0 .26 0 .26.12a.14.14 0 01-.09.13 1.25 1.25 0 01-.36 0h-2.46a3.51 3.51 0 01-.72-.15 2.91 2.91 0 01-.6-.25 4.42 4.42 0 01-.55-.37c-.18-.14-.39-.3-.6-.48s-.39-.35-.72-.67-.69-.69-1.1-1.12l-1.28-1.38-1.3-1.4c-.41-.45-.79-.86-1.11-1.23s-.58-.65-.74-.86h-.1v4.63a14 14 0 00.09 1.81 2.5 2.5 0 00.18.76.71.71 0 00.62.37l.44.06h.36c.11 0 .16 0 .16.12s-.11.17-.33.17h-4.32c-.22 0-.33-.06-.33-.17s.06-.12.17-.12h.31a1.45 1.45 0 00.3-.06.52.52 0 00.42-.37 3.27 3.27 0 00.18-.76c.05-.43.08-1 .09-1.81s0-1.65 0-2.63z"/><path d="M199.07 66.78a2.75 2.75 0 01.25-.55.21.21 0 01.18-.13.23.23 0 01.21.18c0 .11.12.27.22.46l.36.86.66 1.63c.26.63.55 1.33.85 2.08l.91 2.25c.3.73.59 1.43.85 2.1s.5 1.21.69 1.64a7.1 7.1 0 00.46 1 3.41 3.41 0 00.41.55 1.42 1.42 0 00.36.29l.31.12a1.8 1.8 0 00.39.08h.32a.41.41 0 01.16 0 .12.12 0 01.07.11q0 .09-.12.12a1.29 1.29 0 01-.29 0H203.02c-.12 0-.18 0-.18-.1v-.07a.21.21 0 00.09 0 .66.66 0 00.17-.14c.07-.07.06-.18 0-.33l-1.61-4a.2.2 0 00-.17-.11h-4.15a.2.2 0 00-.19.15l-1 2.78a3.42 3.42 0 00-.27 1.17.38.38 0 00.2.37.82.82 0 00.42.1h.16c.12 0 .18 0 .18.14s-.09.15-.26.15H193c-.24 0-.35 0-.35-.15s0-.14.16-.14h.53a1.32 1.32 0 00.94-.51 5.23 5.23 0 00.58-1.09zm2 7.25s.07 0 .06-.13l-1.78-4.77c-.11-.26-.22-.26-.31 0l-1.68 4.77c0 .09 0 .13.06.13zM209.86 77.22c0 .36 0 .65.06.89a2.7 2.7 0 00.13.6.9.9 0 00.2.35.69.69 0 00.31.15 2.72 2.72 0 00.51.08h.39a.13.13 0 01.14.14q0 .15-.33.15h-3.64c-.19 0-.29 0-.29-.15s0-.14.15-.14h.31a1.84 1.84 0 00.42-.08.53.53 0 00.27-.16.84.84 0 00.15-.37 3.48 3.48 0 00.07-.65v-11a2.12 2.12 0 01.07-.7c0-.12.1-.18.17-.18a.55.55 0 01.36.2l.34.34.61.64 1.29 1.36 1.76 1.85c.66.68 1.33 1.38 2 2.09.45.46.9.93 1.34 1.4l1.35 1.35 1 1.08.65.68-.18-8.72a4.59 4.59 0 00-.15-1.19.65.65 0 00-.53-.43 4 4 0 00-.51-.06 3.1 3.1 0 00-.37 0q-.1 0-.12-.06a.26.26 0 010-.11c0-.08.11-.12.34-.12h3.46q.33 0 .33.12a.25.25 0 01-.05.11.19.19 0 01-.15.06h-.17a1 1 0 00-.26 0 .75.75 0 00-.35.14.63.63 0 00-.19.28 2.05 2.05 0 00-.08.44v11.91a.32.32 0 010 .16.11.11 0 01-.07 0 .34.34 0 01-.15 0l-.23-.15-.39-.32c-.16-.14-.36-.32-.6-.55l-.55-.53c-.32-.3-.7-.69-1.15-1.14l-1.48-1.5c-.53-.54-1-1-1.51-1.54l-1.53-1.61-1.38-1.46-1.1-1.15-.66-.72zM230.09 74.54v2.25a13.57 13.57 0 00.08 1.52 1.59 1.59 0 00.16.62.65.65 0 00.53.3 2.46 2.46 0 00.44.06h.38a.12.12 0 01.14.14c0 .1-.09.15-.28.15h-4.1c-.19 0-.28 0-.28-.15s0-.12.14-.12h.26a1.07 1.07 0 00.27-.06.5.5 0 00.39-.31 2 2 0 00.14-.63c0-.36.07-.86.08-1.52s0-1.4 0-2.25v-7.31h-2.6a5.32 5.32 0 00-1.24.13 1.08 1.08 0 00-.59.42 1.34 1.34 0 00-.2.34c0 .08-.06.15-.08.22a.19.19 0 01-.19.16.13.13 0 01-.08 0 .12.12 0 010-.11 2.67 2.67 0 01.06-.35c0-.19.08-.39.13-.61s.1-.41.14-.59a2.38 2.38 0 00.06-.34c0-.05.06-.12.09-.2s.06-.13.09-.13a.6.6 0 01.27.09 1.9 1.9 0 00.53.12c.26 0 .53 0 .82.06h8.11a3.71 3.71 0 00.53-.06l.33-.06a.69.69 0 01.18 0c.06 0 .09.07.09.2V68.51c0 .06-.06.22-.17.22a.1.1 0 01-.09-.06.73.73 0 01-.05-.24v-.19a1 1 0 00-.13-.37.87.87 0 00-.33-.29 2.13 2.13 0 00-.66-.21 7.09 7.09 0 00-1.05-.09h-2.26zM237 70.74a6.89 6.89 0 011.29-2.21 6.79 6.79 0 012.22-1.68 7.24 7.24 0 013.21-.67 8.66 8.66 0 012.83.45 6.65 6.65 0 012.26 1.31 5.92 5.92 0 011.5 2 6.65 6.65 0 01.54 2.73 7.27 7.27 0 01-.52 2.75 6.8 6.8 0 01-3.75 3.79 7.47 7.47 0 01-3 .56 7.32 7.32 0 01-3.17-.62 6.52 6.52 0 01-2.19-1.62 6.37 6.37 0 01-1.22-2.16 7.28 7.28 0 01-.41-2.39 6.82 6.82 0 01.41-2.24zm1.87 4.51a6.19 6.19 0 001.2 2.07 5.21 5.21 0 001.8 1.33 5.6 5.6 0 002.26.46 6.16 6.16 0 001.45-.22 4.12 4.12 0 001.62-.89 4.8 4.8 0 001.3-1.79 7.26 7.26 0 00.54-3 8.07 8.07 0 00-.44-2.76 5.92 5.92 0 00-1.19-2 5 5 0 00-1.72-1.21 5.27 5.27 0 00-2-.41 5.86 5.86 0 00-2.08.36 4.51 4.51 0 00-1.64 1.06 5 5 0 00-1.11 1.75 7.21 7.21 0 00-.39 2.48 8.16 8.16 0 00.43 2.77zM165.49 27.13v-5.79-1.37c0-.37 0-.65-.06-.95a3.41 3.41 0 00-.37-1.47 1.82 1.82 0 00-1.24-.67 2.76 2.76 0 00-.62-.1h-.66c-.2 0-.3-.07-.3-.22s.2-.3.6-.3h2.7l1.54.07h8.6a14.18 14.18 0 001.62-.18 1 1 0 00.26-.12.44.44 0 01.26-.07c.1 0 .15.11.15.34a2.74 2.74 0 01-.11.58 6.56 6.56 0 00-.19 1.18v1.22c0 .26-.05.51-.06.75a2.34 2.34 0 01-.06.51 1.31 1.31 0 01-.09.28c0 .09-.09.13-.17.13s-.3-.16-.3-.49a6 6 0 000-.6 2.58 2.58 0 00-.18-.75 1.78 1.78 0 00-.68-.77 5.52 5.52 0 00-2-.51H168.99c-.15 0-.22.13-.22.38v10.23c0 .25.07.38.22.38h4.74c.6 0 1 0 1.23-.06.46 0 .82-.1 1.09-.15a1.15 1.15 0 00.68-.37c.27-.33.46-.49.56-.49s.19.1.19.3a4 4 0 01-.11.67 10 10 0 00-.19 1.43q0 .3-.06.66V32.55a2.56 2.56 0 010 .47c0 .17-.1.25-.22.25s-.27-.12-.27-.34v-.58a3.27 3.27 0 00-.14-.66 1.87 1.87 0 00-.48-.81 2.38 2.38 0 00-1.47-.5c-.25 0-.64-.05-1.18-.08l-1.65-.06h-2.58a.23.23 0 00-.26.26v9.73a6.27 6.27 0 00.21 1.57 1.65 1.65 0 00.63.94 2.81 2.81 0 001.3.45 16.44 16.44 0 002.22.11h1.8a5.74 5.74 0 001.8-.36 2.27 2.27 0 001.13-.92 5.18 5.18 0 00.56-1.78c.07-.38.19-.57.34-.57a.19.19 0 01.2.19 2.42 2.42 0 010 .38v.58c0 .31-.09.66-.14 1l-.15 1.15a8.52 8.52 0 01-.15.86 2.49 2.49 0 01-.22.56.67.67 0 01-.34.28 1.72 1.72 0 01-.56.12H172.9l-2.9-.17c-.72 0-1.33-.08-1.8-.09h-4.78q-.6 0-.6-.3c0-.15.1-.22.3-.22a3.82 3.82 0 00.57 0 3.27 3.27 0 00.56-.11 1 1 0 00.77-.68 6.83 6.83 0 00.32-1.39 32.56 32.56 0 00.17-3.32v-4.82z"/><path d="M169.62 27.13v-5.79-1.37c0-.37 0-.65-.06-.95a3.26 3.26 0 00-.38-1.47 1.77 1.77 0 00-1.23-.67 2.76 2.76 0 00-.62-.1h-.66c-.2 0-.3-.07-.3-.22s.2-.3.6-.3h7.79c.28 0 .6.1.6.3s-.1.22-.3.22h-.39l-.55.1a1.43 1.43 0 00-1 .65 3.73 3.73 0 00-.36 1.49c0 .3 0 .62-.05.95s0 .8 0 1.37v8h.15c.1-.13.36-.4.77-.83L175 27l1.88-1.91 1.93-2 1.66-1.71 1.07-1.15c.52-.55 1-1.05 1.4-1.52a1.91 1.91 0 00.62-1.18.76.76 0 00-.49-.79q-.33-.15-.33-.3c0-.17.15-.26.45-.26s.82 0 1.35.05 1 .06 1.46.06H189.6c.23 0 .56.09.56.26s-.12.26-.37.26a5.23 5.23 0 00-2.11.53 8.33 8.33 0 00-1 .56 8.16 8.16 0 00-.94.7c-.31.26-.63.55-1 .88l-1.12 1.09-.88.86-1.51 1.47-1.8 1.76-1.8 1.78c-.56.57-1 1.06-1.46 1.49s-.69.71-.81.86q.22.27 1 1.05c.52.53 1.11 1.15 1.79 1.86l2.17 2.27c.78.8 1.52 1.56 2.24 2.27s1.35 1.36 1.91 1.94 1 1 1.22 1.2c.78.73 1.42 1.33 1.94 1.8A16.43 16.43 0 00189 42.3c.4.3.77.55 1.1.75a8.87 8.87 0 001.19.56 6 6 0 001.44.39 7.76 7.76 0 00.89.1c.32 0 .48.07.48.22a.24.24 0 01-.17.23 1.88 1.88 0 01-.65.07H190a10.37 10.37 0 01-1.2-.07 6.81 6.81 0 01-1.33-.26 7.16 7.16 0 01-1.09-.47 7.77 7.77 0 01-1-.68l-1.11-.88c-.28-.23-.71-.63-1.32-1.22s-1.27-1.28-2-2.07l-2.35-2.51-2.38-2.58c-.77-.82-1.45-1.57-2.05-2.25s-1-1.2-1.35-1.57h-.19v8.5a29.88 29.88 0 00.17 3.32 4.3 4.3 0 00.33 1.39 1.34 1.34 0 001.13.68c.28 0 .55.09.81.11a5.76 5.76 0 00.66 0c.2 0 .3.07.3.22s-.2.3-.6.3h-7.94c-.28 0-.6-.1-.6-.3s.1-.22.3-.22a3.82 3.82 0 00.57 0 3.27 3.27 0 00.56-.11 1 1 0 00.77-.68 6.83 6.83 0 00.32-1.39 32.56 32.56 0 00.17-3.32v-4.82zM198.6 12.63h-1.87v4.8h-.52v-4.8h-1.87v-.45h4.26zM204 17.43v-4.31l-1.92 3.33h-.3l-1.92-3.33v4.31h-.52v-5.25h.54l2.12 3.59 2-3.59h.52v5.25z"/></svg>