<svg id="Layer_1" data-name="Layer 1" xmlns="http://www.w3.org/2000/svg" viewBox="0 0 352 92"><path d="M259.28 67.85H92.72v-43.7h166.56zm-165.52-1h164.48V25.19H93.76z"/><path d="m203.44 38.39 1-.87q2.64-2.4 5.27-4.81a1.45 1.45 0 0 1 1.54-.39 3.15 3.15 0 0 1 .11.55v15.15a2.2 2.2 0 0 1-.05.37 6.12 6.12 0 0 1-3.14.06 14.76 14.76 0 0 1-.06-2.31v-7.09c-.29-.21-.44 0-.59.1l-3.06 2.78-1 .84a16 16 0 0 1-2.3-1.94c-.72-.63-1.42-1.28-2.11-1.91-.41.1-.31.4-.31.62v8.92a9.54 9.54 0 0 1-3.1.07c-.19-1.17-.26-8.94-.13-15.34 0-.28.05-.56.08-.82a1.35 1.35 0 0 1 1.61.4c1.72 1.58 3.46 3.15 5.19 4.72zM232.39 32.37a1.06 1.06 0 0 1 1.32.25c.7.72 1.41 1.42 2.12 2.14l5.27 5.35c.32.32.66.62 1 .91.39-.15.29-.44.29-.66V33.6a2.2 2.2 0 0 1 .17-1.29c.2 0 .44-.07.68-.08h2.29a4.12 4.12 0 0 1 .13.65v15.18a1.7 1.7 0 0 1-.07.34.66.66 0 0 1-.93 0 8.51 8.51 0 0 1-.8-.79l-7.13-7.39a3.25 3.25 0 0 0-1-.85 6.62 6.62 0 0 0-.1 1.8v5.51a8.08 8.08 0 0 1-.07 1.71 7.18 7.18 0 0 1-3 .08c-.29-.35-.17-.78-.18-1.18V33.42c-.06-.36-.02-.73.01-1.05zM177.88 35.54a19.22 19.22 0 0 0 0 2.84 8 8 0 0 0 .9.09H183c.32 0 .64.05 1 .08a17.42 17.42 0 0 1 .06 3.06 8.41 8.41 0 0 1-2 .11h-4a7.1 7.1 0 0 0-.13 3.46 8.64 8.64 0 0 0 .92.1H184c.41 0 .82 0 1.26.05a12.4 12.4 0 0 1 0 3.1 4.17 4.17 0 0 1-.73.13h-9.14a6.18 6.18 0 0 1-.78-.1 36 36 0 0 1-.08-4V32.33a19.1 19.1 0 0 1 2.7-.07h8.02a12 12 0 0 1 .11 3.22h-5a18.43 18.43 0 0 0-2.48.06zM171.71 48.49a18.27 18.27 0 0 1-3.05 0 8.92 8.92 0 0 1-.11-.91v-4.63c0-.37 0-.73-.06-1.07a29.5 29.5 0 0 0-5.86-.07 5 5 0 0 0-.12.79v5.81a12.07 12.07 0 0 1-3.06.08 2.73 2.73 0 0 1-.14-.6v-15c0-.17 0-.33.07-.54a14.58 14.58 0 0 1 3-.12 6.7 6.7 0 0 1 .13.88v4.26c0 .32 0 .64.06.94a32.74 32.74 0 0 0 5.87.08 5.14 5.14 0 0 0 .12-.8v-4.13c0-.37 0-.73.07-1.17a21 21 0 0 1 3.07 0 4.09 4.09 0 0 1 .11.66v14.9a5 5 0 0 1-.1.64zM230.58 48.53a19 19 0 0 1-3.44.06c-.63-.92-.91-2-1.49-2.87a46.08 46.08 0 0 0-6.69 0c-.68.86-1 2-1.66 2.91a21.64 21.64 0 0 1-3.32 0c-.17-.48.14-.77.3-1.08q2.7-5.35 5.44-10.71l1.87-3.67a3.46 3.46 0 0 1 .38-.65.76.76 0 0 1 1.1 0 5.68 5.68 0 0 1 .39.78l6.68 14.14c.15.31.27.66.44 1.09zm-8.13-9.75c-.33.59-.53.94-.72 1.3a10.46 10.46 0 0 0-.51 1c-.15.37-.47.68-.38 1.24a11.69 11.69 0 0 0 3.16-.19zM119.22 41.73c.18.21.3.37.44.52a6.5 6.5 0 0 1 1.68 5.75 13.18 13.18 0 0 1-.63 2.51 14.33 14.33 0 0 1-1.37 2.7 16.58 16.58 0 0 1-4 4.24 16 16 0 0 1-4.38-4.95 13.24 13.24 0 0 1-1.7-5.19 6.18 6.18 0 0 1 1.43-4.9c.21-.24.4-.5.64-.82L110 41a7.36 7.36 0 0 1-2.42-1.75 4.33 4.33 0 0 1-1.21-3.06 3.86 3.86 0 0 1 2.13-3.44s.14 0 .29.08c-.2.32-.4.62-.56.94a3.36 3.36 0 0 0 .49 4.16 6.81 6.81 0 0 0 3.34 2.1 12.84 12.84 0 0 0 6.31.06 7.26 7.26 0 0 0 3.5-2.08 3.19 3.19 0 0 0 .52-4.22c-.22-.38-.47-.75-.77-1.22a4 4 0 0 1 1.71 6.36 7.59 7.59 0 0 1-1.58 1.4 17.34 17.34 0 0 1-1.75 1c-.25.07-.49.23-.78.4zm-3.8 13.61a15.4 15.4 0 0 0 4-6.07 8.49 8.49 0 0 0 .35-2.84 4.22 4.22 0 0 0-3.62-4.17c-3.6-.61-5.33 2-5.24 4.31a10 10 0 0 0 .2 1.73 14.33 14.33 0 0 0 4.15 7 1 1 0 0 0 .16.04zM152 48.46a14.35 14.35 0 0 1-3 0 1.82 1.82 0 0 1-.21-1.27V35.54c-1.5-.29-3 0-4.43-.2a6.07 6.07 0 0 1-.08-1.52v-1.53a5.33 5.33 0 0 1 .78-.12h10.75c.2 0 .4 0 .63.05a4.2 4.2 0 0 1 .13 1.52v1.54a4.12 4.12 0 0 1-.77.13h-2.75c-.28 0-.56 0-.83.06a2.24 2.24 0 0 0-.16 1.28V47c-.06.51-.06 1-.06 1.46zM204.34 51.76c.74 1.12 1.07 2.43 1.85 3.53a1.12 1.12 0 0 0 .26-1.59c-.32-.57-.57-1.19-.88-1.85a2.54 2.54 0 0 1 1.41-.08c.67 1.11 1 2.35 1.79 3.51.73-1.15 1.11-2.34 1.76-3.47.22 0 .46-.08.7-.09a3.15 3.15 0 0 1 .61.06 1 1 0 0 1 0 .4q-1.37 3-2.75 6c-.05.12-.11.23-.21.44a4.21 4.21 0 0 1-.49-.57 9.42 9.42 0 0 0-.92-1.78c-.56.68-.67 1.57-1.28 2.28a3.64 3.64 0 0 1-.41-.51q-1.34-2.89-2.65-5.8a2.42 2.42 0 0 1-.09-.43 2.43 2.43 0 0 1 1.3-.05zM148.29 54.57c-.08 1.37 0 2.57-.06 3.72a1.25 1.25 0 0 1-1.11.17c-.06-.06-.16-.13-.16-.19v-6.25c0-.06.08-.13.15-.27.7.11 1 .73 1.54 1.13s1 .88 1.54 1.37c.32-.27.61-.49.88-.73.56-.5 1.11-1 1.68-1.5a2.53 2.53 0 0 1 .64-.29 39.55 39.55 0 0 1 0 6.71h-1.09a6.1 6.1 0 0 1-.12-1.85 11.72 11.72 0 0 0-.08-1.93c-.8.28-1.15 1-1.91 1.37-.65-.29-1.05-1.03-1.9-1.46zM233.87 58.42c-.23 0-.36.12-.47.09a2.82 2.82 0 0 0-1.44.07 2.2 2.2 0 0 1-1.28-4.21 2.22 2.22 0 0 1 1.22-.09 3.07 3.07 0 0 0 1.56.1c.11 0 .23.07.43.14.03 1.26.04 2.55-.02 3.9zm-1.22-2a1.1 1.1 0 0 0-1.11-1.1 1.12 1.12 0 0 0-1 1.2 1.06 1.06 0 0 0 2.12-.1zM136.15 32.7v-.95l-.21.24a3.12 3.12 0 0 1-.26.26c-.12.12-.18.19-.19.29a9 9 0 0 0 0 1v24.64a7.47 7.47 0 0 0 .05 1 .4.4 0 0 0 .19.25h.07l.09.08.09-.08a.27.27 0 0 1 .08-.07.26.26 0 0 0 .14-.21q0-12.81.06-25.63c-.08-.2-.09-.47-.11-.82zM222.31 56.77l-2.75.09c-.21.32 0 .49.16.54a1.72 1.72 0 0 0 .84.05.92.92 0 0 1 1.09.44c-.17.51-.65.59-1.07.73a1.94 1.94 0 0 1-1.45-.2 2.23 2.23 0 0 1 1.3-4.2c1.15.14 1.84 1.02 1.88 2.55zM221 56c-.42-.7-.68-.81-1.24-.55-.23.11-.43.25-.27.6A2.78 2.78 0 0 0 221 56zM173 58.38a1.58 1.58 0 0 1-.41.12 5.82 5.82 0 0 1-.6 0 12.69 12.69 0 0 1-.05-4l.09-.08c.42-.26.8.14 1.2.08a8.27 8.27 0 0 1 1.07-.25 2 2 0 0 1 1.97 1.75 12.12 12.12 0 0 1 0 2.41h-1c-.26-.42-.13-.84-.16-1.25a10.17 10.17 0 0 0-.09-1.11.94.94 0 0 0-.9-.73.88.88 0 0 0-.87.59 3.53 3.53 0 0 0-.17 1c-.03.49-.03.98-.08 1.47zM165 56.73c-.89.22-1.82 0-2.69.17-.16.36.07.5.31.56a1.5 1.5 0 0 0 .73 0c.48-.17.79 0 1.11.41-.17.5-.62.6-1 .74a1.91 1.91 0 0 1-1.46-.18 2.23 2.23 0 0 1 1.49-4.17 2.12 2.12 0 0 1 1.3.91 1.6 1.6 0 0 1 .21 1.56zm-1.17-.73c-.73-.93-1.2-.91-1.71 0a3.39 3.39 0 0 0 1.71 0zM186.65 54.69l-.48.77c-.4-.08-.75-.18-1.11-.23a.36.36 0 0 0-.27.2.32.32 0 0 0 .1.31 3.2 3.2 0 0 0 .56.26 4.28 4.28 0 0 1 .77.39 1.14 1.14 0 0 1 .06 1.83 1.7 1.7 0 0 1-1.13.45 2.77 2.77 0 0 1-1.85-.67 1 1 0 0 1 .61-.72 8.81 8.81 0 0 0 .89.38.78.78 0 0 0 .47-.06.29.29 0 0 0 .09-.42 1.91 1.91 0 0 0-.4-.28c-.26-.12-.54-.21-.8-.33a1 1 0 0 1-.65-1 1.15 1.15 0 0 1 .64-1.12 2 2 0 0 1 1.46-.16 7.78 7.78 0 0 1 1.04.4zM242.14 58.46h-.86a4.47 4.47 0 0 1-.17-2v-1.92c.16-.11.23-.19.29-.18a6.5 6.5 0 0 0 1 .13c.32 0 .62-.24.95-.29a4.11 4.11 0 0 1 .93.08l-.32.95c-1.65.2-1.6.66-1.62 1.76a2.86 2.86 0 0 1-.2 1.47zM116.64 59.78a1.8 1.8 0 0 1-1.57.47 1.16 1.16 0 0 1-1.13-.5 1.47 1.47 0 0 1 .29-.32 2.42 2.42 0 0 1 1.57-.19c.28.03.28.04.84.54z"/></svg>