<svg id="Layer_1" data-name="Layer 1" xmlns="http://www.w3.org/2000/svg" viewBox="0 0 352 92"><defs><style>.cls-1{fill:#d3ae22}.cls-2{fill:#ba0012}</style></defs><path class="cls-1" d="M95.68 32a.42.42 0 01-.17.18 1.06 1.06 0 01-.28.15 1.41 1.41 0 01-.4.08.35.35 0 01-.26-.13l-.61-.8c-.15-.2-.28-.38-.38-.54l.2.69c.07.2.14.4.2.6s.13.39.19.59.13.42.21.67l-.2.13-.26.11a.88.88 0 01-.46.06.37.37 0 01-.27-.26l-.94-3.29a.63.63 0 01.16-.25 1.07 1.07 0 01.44-.26 1.09 1.09 0 01.56-.08.61.61 0 01.4.24l.24.3.28.36.27.37.24.33q0-.59-.06-1.14v-.92A.74.74 0 0195 29a1.35 1.35 0 01.32-.15 1.22 1.22 0 01.54-.09.39.39 0 01.31.18 3.89 3.89 0 01.19.37l.27.57.31.67c.1.24.21.47.3.69s.19.41.27.6.13.32.17.42a.77.77 0 01-.19.17 1.13 1.13 0 01-.29.13.85.85 0 01-.43.06.35.35 0 01-.29-.26c-.19-.45-.35-.85-.48-1.22s-.25-.66-.35-.91v.69c0 .31.01.66.03 1.08zM98.4 28.22a1.28 1.28 0 01.31-.2 3.26 3.26 0 01.44-.15 1.76 1.76 0 01.6 0 .53.53 0 01.39.24l.41.74c.15.28.31.58.46.88s.31.6.46.9l.4.78a.49.49 0 01-.21.19 1.17 1.17 0 01-.36.13h-.27a.59.59 0 01-.2 0 .53.53 0 01-.14-.12 1.42 1.42 0 01-.11-.18l-.21-.43-1.19.24v.85l-.19.1a1 1 0 01-.24.07.84.84 0 01-.51 0 .37.37 0 01-.23-.28 1.21 1.21 0 010-.19v-.23-.46c0-.18 0-.39.06-.61l.09-.66c0-.23.06-.45.09-.65s0-.39.08-.55a3.29 3.29 0 01.07-.41zm.95.69c0 .19 0 .41-.08.65s-.06.48-.07.73l.81-.17-.32-.65-.3-.57zM103.38 30.1l.1 1.28-.23.05a1.67 1.67 0 01-.31.05 1.17 1.17 0 01-.27 0 .52.52 0 01-.2-.06.34.34 0 01-.13-.16.9.9 0 01-.06-.28l-.28-3.15a.26.26 0 01.06-.22.51.51 0 01.2-.14 2.28 2.28 0 01.52-.16 5.88 5.88 0 01.64-.08 2.13 2.13 0 011.41.28 1.31 1.31 0 01.55 1 1.14 1.14 0 01-.16.72 1.74 1.74 0 01-.47.5c.17.2.35.39.52.57a4.58 4.58 0 01.4.49.62.62 0 01-.21.38.7.7 0 01-.39.15.74.74 0 01-.26 0 .64.64 0 01-.19-.08.7.7 0 01-.16-.14c0-.05-.09-.11-.14-.17l-.63-.86zm.35-.92a.58.58 0 00.39-.16.52.52 0 00.12-.4.47.47 0 00-.19-.37.82.82 0 00-.53-.09H103.23l.07 1zM109.84 29.9a1.6 1.6 0 01-.16.66 1.38 1.38 0 01-.38.49 1.51 1.51 0 01-.58.29 2.31 2.31 0 01-.76.08 2.17 2.17 0 01-.75-.15 1.62 1.62 0 01-.55-.35 1.36 1.36 0 01-.33-.52 1.65 1.65 0 01-.1-.67l.13-2.55h.23a1.09 1.09 0 01.31 0 1.12 1.12 0 01.27 0 .39.39 0 01.19.1.34.34 0 01.11.17.6.6 0 010 .28l-.1 2a.67.67 0 00.16.51.63.63 0 00.45.2.57.57 0 00.46-.16.65.65 0 00.2-.49l.12-2.53H109.58a.56.56 0 01.19.09.33.33 0 01.11.18 1 1 0 010 .28zM110.83 28.4a1.05 1.05 0 01-.06-.21.82.82 0 010-.27.49.49 0 01.18-.35.39.39 0 01.32-.07l2.87.49a1.08 1.08 0 010 .21 1.31 1.31 0 010 .28.48.48 0 01-.18.34.4.4 0 01-.32.07l-.73-.13-.52 3h-.54l-.27-.07a.57.57 0 01-.18-.12.51.51 0 01-.09-.18 1 1 0 010-.29l.43-2.55zM117.51 33.13h-.24L117 33a1.18 1.18 0 01-.25-.1.59.59 0 01-.17-.13.43.43 0 01-.07-.2.79.79 0 010-.28l.29-1-1.21-.29-.44 1.47h-.23a1.63 1.63 0 01-.3-.07l-.26-.1a.42.42 0 01-.16-.13.43.43 0 01-.07-.2 1.1 1.1 0 010-.28l1-3.38h.23l.3.06.26.1a.56.56 0 01.16.14.4.4 0 01.07.19 1.17 1.17 0 010 .29l-.31 1 1.23.37.45-1.5h.23a1.33 1.33 0 01.3.06 1.28 1.28 0 01.26.1.44.44 0 01.16.14.32.32 0 01.07.19.75.75 0 010 .28zM119.3 33.87h-.23l-.29-.1a1.33 1.33 0 01-.24-.12.61.61 0 01-.16-.16.31.31 0 010-.2.83.83 0 01.06-.27l1.32-3.27.23.05a2.13 2.13 0 01.3.09l.24.12a.45.45 0 01.15.16.31.31 0 010 .2.67.67 0 01-.07.27z"/><path class="cls-2" d="M106.19 33.91a47.21 47.21 0 015.58.33 49 49 0 017.51 1.51.4.4 0 01.36.42c0 1.33.11 2.65.08 4a33.68 33.68 0 01-.74 6.41 25.87 25.87 0 01-2.37 6.54 26.79 26.79 0 01-3.73 5.36 34.3 34.3 0 01-5.88 5.14c-.56.38-.55.38-1.09 0-.92-.71-1.83-1.41-2.71-2.17a35 35 0 01-3-2.88 28.5 28.5 0 01-2.59-3.3 25.29 25.29 0 01-2.5-4.85 27.9 27.9 0 01-1.42-5.23 34.52 34.52 0 01-.43-3.63q-.15-2.05-.12-4.11v-1.38a.28.28 0 01.22-.28c.7-.23 1.41-.44 2.13-.62 1.24-.31 2.49-.55 3.76-.75 1-.15 1.93-.25 2.9-.33 1.39-.09 2.71-.19 4.04-.18zm-4.13 19.29a10.06 10.06 0 00.87.94 32.23 32.23 0 003.28 2.79.37.37 0 00.51 0 23.08 23.08 0 004.85-4.46 15.43 15.43 0 001.34-1.9 18.34 18.34 0 002-4.87 13.17 13.17 0 00.65-4.55q.06-1.63 0-3.27a.26.26 0 00-.23-.28c-.6-.17-1.21-.34-1.83-.48a34.7 34.7 0 00-5.06-.75c-.93-.07-1.86-.05-2.78-.06a27.66 27.66 0 00-2.88.18c-.71.07-1.42.18-2.13.3a22.18 22.18 0 00-3.21.81.18.18 0 00-.15.2v1c0 1 0 2 .12 3a22.89 22.89 0 00.6 3.78.23.23 0 00.07.13.16.16 0 00.11 0c1.92.06 4.45-1.61 4.45-1.61a14.49 14.49 0 002.36-1.83 6.29 6.29 0 001.59-2.27 1.34 1.34 0 00-.78-1.82 2.93 2.93 0 00-2-.11c-.39.11-.82.19-1 .66a.07.07 0 01-.05 0 2.08 2.08 0 01-1.06.23.2.2 0 01-.21-.13.23.23 0 01.08-.23 2 2 0 01.55-.37 7.9 7.9 0 014.69-.63 4 4 0 011.92.81 2.4 2.4 0 01.85 2.51 5.14 5.14 0 01-1 2.12 14.1 14.1 0 01-3.07 2.9 21.58 21.58 0 01-3.09 1.88 11.82 11.82 0 01-3 1.12c-.17 0-.18.1-.11.25a18.74 18.74 0 001.21 2 .26.26 0 00.31.13 10.68 10.68 0 003.33-1.18 19 19 0 005.74-4.45 7.65 7.65 0 001.69-2.92 3 3 0 00-.58-3l-.23-.29a6.34 6.34 0 011.13 1.06 5.91 5.91 0 011.16 2 5.17 5.17 0 01-.62 4.28 11.77 11.77 0 01-3.33 3.52 16.21 16.21 0 01-3.27 1.9 7.4 7.4 0 01-3.79.96z"/><path class="cls-2" d="M99.63 40.09c0 .28 0 .32.31.33a2.49 2.49 0 00.81-.12l.24-.08c.66-.22.93.05.91.74a1.71 1.71 0 01-.84 1.45 4.07 4.07 0 01-2.51.69h-.08c-.47-.08-.67-.19-.42-.73a8.45 8.45 0 011.4-2.13c.06-.07.1-.14.18-.15zM113.64 46.69a7.6 7.6 0 01-3.92 6.13c-2 1.14-4.55 1.39-5.24 1l.9-.08a8.48 8.48 0 002.81-.94 12.34 12.34 0 003.35-2.52 8 8 0 001.88-2.91c0-.11.06-.22.1-.33a.75.75 0 01.12-.35z"/><path d="M133.41 61.42h-2.75V64h3.07v.77h-4v-7.11h3.83v.76h-2.91v2.24h2.75zM134.92 64.74v-7.08h1l2.27 3.58a22 22 0 011.27 2.3c-.09-.94-.11-1.81-.11-2.91v-3h.87v7.08h-.93l-2.25-3.6a20.79 20.79 0 01-1.32-2.36c0 .89.07 1.75.07 2.92v3zM147.23 64.42a6.53 6.53 0 01-2.18.39 3.32 3.32 0 01-3.64-3.57 3.56 3.56 0 013.84-3.66 4.36 4.36 0 011.77.33l-.22.74a3.86 3.86 0 00-1.57-.3 2.65 2.65 0 00-2.85 2.85 2.6 2.6 0 002.73 2.86 3.07 3.07 0 001.22-.19v-2.12h-1.44V61h2.34zM149.54 57.66v7.08h-.91v-7.08zM151.14 64.74v-7.08h1l2.27 3.58a22 22 0 011.27 2.3c-.08-.94-.11-1.81-.11-2.91v-3h.87v7.08h-.93l-2.25-3.6a20.79 20.79 0 01-1.26-2.33c0 .89.07 1.75.07 2.92v3zM161.72 61.42H159V64h3v.77h-4v-7.11h3.83v.76H159v2.24h2.75zM166.9 61.42h-2.76V64h3.07v.77h-4v-7.11h3.82v.76h-2.91v2.24h2.76zM168.4 57.75a9.84 9.84 0 011.75-.15 2.89 2.89 0 012 .58 1.77 1.77 0 01.56 1.35 1.86 1.86 0 01-1.33 1.8 1.76 1.76 0 011 1.43 12.15 12.15 0 00.54 1.94h-.94a8.69 8.69 0 01-.48-1.69c-.21-1-.58-1.35-1.41-1.38h-.87v3.07h-.91zm.91 3.23h.94c1 0 1.6-.54 1.6-1.35s-.67-1.31-1.63-1.32a4 4 0 00-.91.08zM175 57.66v7.08h-.92v-7.08zM176.57 64.74v-7.08h1l2.27 3.58a22 22 0 011.27 2.3c-.09-.94-.11-1.81-.11-2.91v-3h.87v7.08H181l-2.25-3.6a20.79 20.79 0 01-1.32-2.36c0 .89.07 1.75.07 2.92v3zM188.88 64.42a6.53 6.53 0 01-2.18.39 3.32 3.32 0 01-3.64-3.57 3.56 3.56 0 013.84-3.66 4.36 4.36 0 011.77.33l-.22.74a3.86 3.86 0 00-1.57-.3A2.65 2.65 0 00184 61.2a2.6 2.6 0 002.73 2.86 3.07 3.07 0 001.22-.19v-2.12h-1.44V61h2.34zM193.42 58.43h-2.16v-.77h5.25v.77h-2.17v6.31h-.92zM201 61.42h-2.76V64h3.07v.77h-4v-7.11h3.82v.76h-2.91v2.24H201zM207.42 64.51a4.55 4.55 0 01-1.87.33 3.31 3.31 0 01-3.5-3.58 3.52 3.52 0 013.7-3.72 3.91 3.91 0 011.68.31l-.22.75a3.32 3.32 0 00-1.43-.29 2.63 2.63 0 00-2.78 2.92 2.57 2.57 0 002.72 2.85 3.62 3.62 0 001.49-.3zM209.48 57.66v3h3.43v-3h.92v7.08h-.92v-3.32h-3.43v3.32h-.91v-7.08zM215.42 64.74v-7.08h1l2.27 3.58a18.84 18.84 0 011.27 2.3c-.08-.94-.1-1.81-.1-2.91v-3h.86v7.08h-.93l-2.25-3.6a22.46 22.46 0 01-1.32-2.36c0 .89.07 1.75.07 2.92v3zM228.39 61.12c0 2.44-1.48 3.74-3.29 3.74s-3.18-1.46-3.18-3.6 1.4-3.72 3.29-3.72 3.18 1.46 3.18 3.58zm-5.5.12c0 1.51.82 2.87 2.26 2.87s2.28-1.34 2.28-2.94c0-1.41-.74-2.88-2.26-2.88s-2.28 1.39-2.28 2.95zM229.58 57.66h.92V64h3v.77h-3.94zM240.19 61.12c0 2.44-1.48 3.74-3.29 3.74s-3.19-1.46-3.19-3.6 1.4-3.72 3.29-3.72 3.19 1.46 3.19 3.58zm-5.5.12c0 1.51.82 2.87 2.26 2.87s2.27-1.34 2.27-2.94c0-1.41-.74-2.88-2.26-2.88s-2.27 1.39-2.27 2.95zM246.77 64.42a6.53 6.53 0 01-2.18.39 3.31 3.31 0 01-3.59-3.57 3.55 3.55 0 013.83-3.66 4.36 4.36 0 011.77.33l-.22.74a3.82 3.82 0 00-1.57-.3 2.65 2.65 0 00-2.85 2.85 2.6 2.6 0 002.74 2.86 3 3 0 001.21-.19v-2.12h-1.44V61h2.34zM249.08 57.66v7.08h-.91v-7.08zM254.35 61.42h-2.76V64h3.07v.77h-4v-7.11h3.83v.76h-2.92v2.24h2.76zM255.73 63.63a3.23 3.23 0 001.63.46c.94 0 1.49-.5 1.49-1.21s-.38-1-1.34-1.41c-1.15-.41-1.87-1-1.87-2a2 2 0 012.29-1.92 3.22 3.22 0 011.57.35l-.25.74a2.93 2.93 0 00-1.35-.33c-1 0-1.33.57-1.33 1.06 0 .66.43 1 1.4 1.36 1.2.47 1.81 1.05 1.81 2.09s-.81 2-2.48 2a3.6 3.6 0 01-1.81-.45z"/><path class="cls-2" d="M143.73 43.78a3.06 3.06 0 01-1 .55 5 5 0 01-1.48.2 5.2 5.2 0 01-1.86-.28 1.48 1.48 0 01-1-1c-.58-1.83-1.06-3.32-1.44-4.45s-.66-2.13-.87-3h-.16c-.06 1.23-.11 2.34-.14 3.35s-.05 2-.06 3 0 1.92-.06 2.9-.08 2.06-.15 3.25a5.65 5.65 0 01-1.06.26 7.17 7.17 0 01-1.31.11 4.36 4.36 0 01-2.14-.43 1.69 1.69 0 01-.76-1.6l.9-15.93a3 3 0 011.1-.87 5 5 0 012.37-.47 5.33 5.33 0 012.59.52 3.06 3.06 0 011.38 1.67c.18.5.39 1.07.6 1.72s.44 1.31.66 2 .43 1.37.64 2 .4 1.29.56 1.83h.16q.75-2.62 1.5-5.08c.5-1.63 1-3 1.37-4.11a5.82 5.82 0 011.21-.42 7.35 7.35 0 011.63-.17 6 6 0 012.5.45 1.83 1.83 0 011.13 1.3c.08.42.17 1.06.26 1.92s.2 1.84.3 2.92.21 2.23.31 3.44.21 2.37.3 3.48.17 2.13.23 3.06.11 1.64.13 2.14a4 4 0 01-1.11.45 6.13 6.13 0 01-1.48.14 4.43 4.43 0 01-2-.4 1.72 1.72 0 01-.88-1.6c-.12-2.26-.2-4.31-.23-6.12s-.08-3.33-.14-4.56h-.16c-.21.81-.51 1.84-.9 3.06s-.88 2.85-1.44 4.77zM159.72 30.07a6.2 6.2 0 011.61-.59 8.46 8.46 0 012.17-.29 7.83 7.83 0 012.76.46 2.4 2.4 0 011.55 1.42c.37 1.08.78 2.34 1.22 3.78s.87 2.92 1.31 4.45.86 3 1.28 4.53.78 2.8 1.09 4a2.6 2.6 0 01-1.12.7 5.25 5.25 0 01-1.78.27 5.71 5.71 0 01-1.27-.13 2.32 2.32 0 01-.84-.37 1.82 1.82 0 01-.53-.66 4.86 4.86 0 01-.36-.94l-.56-2.15h-5.66l-.5 1.93c-.16.67-.33 1.32-.5 1.94-.29.1-.59.19-.92.27a5.54 5.54 0 01-1.17.11 4.13 4.13 0 01-2.36-.55 1.75 1.75 0 01-.76-1.52 3.26 3.26 0 01.12-.87c.09-.29.18-.63.29-1 .14-.56.34-1.26.6-2.09s.55-1.74.86-2.7.65-2 1-3 .69-2 1-2.89.6-1.71.86-2.42.46-1.32.61-1.69zm3.75 4c-.29.87-.62 1.85-1 2.92s-.69 2.16-1 3.26h3.87c-.29-1.12-.59-2.22-.89-3.29s-.58-2-.82-2.89zM180.71 42.31v6c-.23.06-.59.12-1.08.19a11.88 11.88 0 01-1.45.09 6.83 6.83 0 01-1.27-.11 2.06 2.06 0 01-.9-.39 1.81 1.81 0 01-.55-.78 3.91 3.91 0 01-.19-1.31V31.29a1.38 1.38 0 01.36-1 2.62 2.62 0 011-.58 11.36 11.36 0 012.46-.54 23.78 23.78 0 013-.17c2.88 0 5 .6 6.5 1.81a6 6 0 012.18 4.9 5.5 5.5 0 01-1 3.31 7.18 7.18 0 01-2.38 2.13c.75 1 1.49 2 2.22 2.87a19 19 0 011.72 2.43 3 3 0 01-1.14 1.68 3.2 3.2 0 01-1.86.57 4.15 4.15 0 01-1.19-.15 3 3 0 01-.87-.44 3.75 3.75 0 01-.69-.69 7.8 7.8 0 01-.59-.87l-2.63-4.22zm2-4.15a2.75 2.75 0 001.87-.61 2.29 2.29 0 00.69-1.8 2.14 2.14 0 00-.77-1.79 3.86 3.86 0 00-2.42-.61 7.48 7.48 0 00-.75 0l-.62.09v4.69zM210.75 41.44a8 8 0 01-.57 3.07 6.71 6.71 0 01-1.67 2.38 7.61 7.61 0 01-2.66 1.51 12 12 0 01-7.06 0 7.56 7.56 0 01-2.65-1.51 6.46 6.46 0 01-1.67-2.38 7.81 7.81 0 01-.58-3.07V29.51c.23-.05.59-.1 1.09-.18a10.36 10.36 0 011.44-.1 6.7 6.7 0 011.26.1 2.28 2.28 0 01.92.4 1.66 1.66 0 01.57.78 3.93 3.93 0 01.18 1.31v9.52a3.24 3.24 0 00.83 2.35 3.17 3.17 0 004.3 0 3.27 3.27 0 00.81-2.35V29.51c.23-.05.59-.1 1.09-.18a10.36 10.36 0 011.44-.1 6.7 6.7 0 011.26.1 2.28 2.28 0 01.92.4 1.66 1.66 0 01.57.78 3.93 3.93 0 01.18 1.31zM213.85 33.88a3.65 3.65 0 01-.41-.94 3.94 3.94 0 01-.19-1.25 2.35 2.35 0 01.55-1.75 2 2 0 011.42-.53h13.62a4.06 4.06 0 01.4.94 4 4 0 01.19 1.25 2.35 2.35 0 01-.55 1.75 2 2 0 01-1.42.53H224v14.43c-.23.06-.59.12-1.08.19a12 12 0 01-1.45.09 6.83 6.83 0 01-1.27-.11 2.19 2.19 0 01-.92-.39 1.68 1.68 0 01-.56-.78 3.67 3.67 0 01-.19-1.31V33.88zM249 48.31c-.23.06-.59.12-1.07.19a12 12 0 01-1.46.09 6.64 6.64 0 01-1.26-.11 2.14 2.14 0 01-.92-.39 1.68 1.68 0 01-.56-.78 3.67 3.67 0 01-.19-1.31v-4.87h-6v7.18c-.23.06-.59.12-1.08.19a11.88 11.88 0 01-1.45.09 6.64 6.64 0 01-1.26-.11 2.18 2.18 0 01-.93-.39 1.75 1.75 0 01-.56-.78 3.93 3.93 0 01-.18-1.31V29.51c.22-.05.59-.1 1.09-.18a10.36 10.36 0 011.44-.1 6.77 6.77 0 011.26.1 2.34 2.34 0 01.92.4 1.58 1.58 0 01.56.78 3.67 3.67 0 01.19 1.31v5h6v-7.3c.23-.05.59-.1 1.09-.18a10.36 10.36 0 011.44-.1 6.7 6.7 0 011.26.1 2.28 2.28 0 01.92.4 1.66 1.66 0 01.57.78 3.93 3.93 0 01.18 1.31zM258.54 48.31c-.23.06-.59.12-1.08.19a11.88 11.88 0 01-1.45.09 6.83 6.83 0 01-1.27-.11 2.19 2.19 0 01-.92-.39 1.75 1.75 0 01-.56-.78 3.91 3.91 0 01-.19-1.31V29.51c.23-.05.6-.1 1.1-.18a10.33 10.33 0 011.43-.1 6.89 6.89 0 011.27.1 2.34 2.34 0 01.92.4 1.58 1.58 0 01.56.78 3.67 3.67 0 01.19 1.31z"/></svg>