<svg id="Layer_1" data-name="Layer 1" xmlns="http://www.w3.org/2000/svg" viewBox="0 0 352 92"><defs><style>.cls-1{fill:#009347}.cls-2{fill:#be1e2d}</style></defs><path class="cls-1" d="M212.9 44.69v-8.7c0-.54.1-.79.7-.73a9.32 9.32 0 0 0 1.67 0c.55-.05.7.17.7.69v7.25c0 .36-.15.85.09 1.05s.62-.22 1-.31a9.76 9.76 0 0 1 6.51.14 3.09 3.09 0 0 1 2.09 2.9c.13 2.29-.06 4.59 0 6.88 0 .28-.09.38-.37.38h-2.25c-.47 0-.42-.31-.42-.59V47.5a1.73 1.73 0 0 0-1.62-1.88 7.49 7.49 0 0 0-3.16.06 2.13 2.13 0 0 0-1.84 2.26c0 1.81-.05 3.63 0 5.44 0 .69-.25.91-.89.88a10 10 0 0 0-1.45 0c-.55 0-.74-.13-.73-.73v-8.84zM147.37 52.63a9.81 9.81 0 0 1-2.83 1.55 8.89 8.89 0 0 1-7.64-.75 4.75 4.75 0 0 1-2.28-4.76 5.06 5.06 0 0 1 3.32-4.53 10 10 0 0 1 7.53.11 5 5 0 0 1 2.63 2.47c.18.36.12.56-.24.73l-5.21 2.65c-.67.34-1.21-.06-1.76-.34-.34-.17-.9-.28-.92-.6s.56-.41.88-.58c1-.54 2.08-1.09 3.15-1.57.58-.26.48-.48.1-.8a4.51 4.51 0 0 0-4.89.09 3.85 3.85 0 0 0-.77 4.45 3 3 0 0 0 2.89 1.78 4.18 4.18 0 0 0 2.61-.62.71.71 0 0 1 .69-.06zM191.33 43.51a7.73 7.73 0 0 1 5.55 2l.15.15c1 1.08.93 1.56-.36 2.21-1.46.73-2.92 1.46-4.37 2.21a1.05 1.05 0 0 1-1 .05l-1.37-.66c-.15-.07-.34-.12-.34-.32s.21-.24.35-.31c1.19-.58 2.38-1.15 3.55-1.75.66-.33.66-.52.1-.94a3.71 3.71 0 0 0-5.78 1.92c-.53 2 .48 4.51 3.28 4.45a3.46 3.46 0 0 0 2.52-.63.49.49 0 0 1 .48-.08l2.22.62c.57.15.42.38.08.64a8.78 8.78 0 0 1-3.52 1.4 9.23 9.23 0 0 1-5-.3 5.4 5.4 0 0 1-3.69-5.8 5.59 5.59 0 0 1 4.36-4.54 9.35 9.35 0 0 1 2.79-.32zM132.64 54.19a1.29 1.29 0 0 1-.7.06h-8.84c-.82 0-.95-.31-.95-1V37.31c0-.48.11-.69.64-.66a21.11 21.11 0 0 0 2.25 0c.42 0 .56.16.57.54v2c.06 4.11-.14 8.22-.07 12.32 0 .76.23 1 1 .94 1.26-.06 2.52 0 3.77 0s1.81.4 2.33 1.74zM174.18 46.41v-7.17c0-.5-.13-.69-.65-.66h-2.17c-.41 0-.46-.15-.26-.48a2.39 2.39 0 0 1 2.38-1.44c2.41.12 4.83 0 7.25 0 .17 0 .42-.12.52.1s-.14.34-.22.5a2.16 2.16 0 0 1-2.58 1.27c-.69-.14-.81.19-.81.82v14.06c0 .64-.2.86-.82.82s-1.4 0-2.1 0c-.47 0-.6-.15-.6-.62.08-2.36.06-4.78.06-7.2z"/><path class="cls-2" d="M135.89 39.23c-.62-1.45-1.11-1.55-2.23-.52a3.28 3.28 0 0 0-.9 1.12.81.81 0 0 0 .11.88c.23.27.52.21.81.15a2.13 2.13 0 0 1 1-.19 3.87 3.87 0 0 0-.9 1.84c-.09.35-.48.45-.84.43a1.36 1.36 0 0 0-1 .41c-.26.22-.47.94-1 .24a7 7 0 0 0-1 .53 3.41 3.41 0 0 0-.73-3.57c1.11-.21 1.24.77 1.74 1.23.59-.8.59-.8 1.27-.07a3.21 3.21 0 0 0 .48.42.45.45 0 0 0 .6-.08c.18-.2.09-.41-.09-.57-.38-.34-.76-.67-1.15-1s-.54-.75-.06-1.19 1.07-1 1.62-1.56a1.25 1.25 0 0 1 1.87-.12 2.44 2.44 0 0 0 .62.36.72.72 0 0 0 .9-.4c.25-.45 0-.75-.28-1a3.14 3.14 0 0 1-1-.94c-.07-.14-.14-.37-.07-.47s.29 0 .45 0 .53.39.68.07-.27-.39-.5-.52c-.73-.41-1.46-.84-2.2-1.24-.3-.17-.6-.57-.95-.34s.08.57 0 1c-1.85-.63-2.92-2.29-4.6-3.09.63.88 1.63 1.57 1.24 2.86-.33 0-.23-.29-.27-.48a1.06 1.06 0 0 0-1.14-1 14.26 14.26 0 0 0-2.53.12c-.31.05-.62 0-.94.06s-.35-.21-.42-.41a.41.41 0 0 1 .1-.47c.21-.19.35 0 .5.11.94.47 1.26.44 1.49-.17a.62.62 0 0 0-.48-.93 1.67 1.67 0 0 0-2.06 1.11 3.51 3.51 0 0 1-1.26 2 .48.48 0 0 1-.46 0c.16-.31.32-.62.47-.93a.57.57 0 0 0-.14-.66c-.15-.12-.36.07-.5.18-.58.43-1.12.9-1.7 1.33a2.72 2.72 0 0 1-1.39.57c-1 .09-1.35-.39-.91-1.36.76.8.78.83 1.76.13a33.33 33.33 0 0 1 4.39-3.09c-.77-.4-1.35.23-2 .08.31-.52 1.63-1.26 3.58-2h-2.17c-.06-.22.1-.25.18-.27 1.5-.29 3-.6 4.52-.86a1.92 1.92 0 0 1 2.13 1.63 5.5 5.5 0 0 0 .34 1.5c.41-.41.18-1.06.64-1.45a1.84 1.84 0 0 1 .32 1.56 1.29 1.29 0 0 0 .6 1.35 29 29 0 0 0 3.32 2 8.49 8.49 0 0 1 1.34.86 1.47 1.47 0 0 1 .5 1.86 3.14 3.14 0 0 0-.1 1.43c0 .56-.22.88-.79.89a1 1 0 0 0-.81.64z"/><path class="cls-1" d="M206.93 43.59a9.54 9.54 0 0 1 2.31.26c.46.14.67.37.29.82a3.35 3.35 0 0 0-.43.58c-.27.5-.52.57-1.14.42-2.23-.54-4.26.49-4.47 3.06a5.64 5.64 0 0 0 0 1.23 2.78 2.78 0 0 0 3 2.55 6.82 6.82 0 0 0 1.8-.11c.42-.11 1.53 1.15 1.42 1.56s-.4.35-.64.41a9.06 9.06 0 0 1-2.79.3 7.43 7.43 0 0 1-4-1.15 5.32 5.32 0 0 1 2.47-9.7c.75-.11 1.55-.16 2.18-.23z"/><path class="cls-2" d="M165.66 50.17a3.45 3.45 0 0 1-2.4.73 11.46 11.46 0 0 1 .89-.86 12.3 12.3 0 0 0 1.76-1.62 4.16 4.16 0 0 0-.3-6.24A7.43 7.43 0 0 0 166 44a4.79 4.79 0 0 1-.13 2.78c-.07.18-.15.37-.4.34s-.15-.26-.17-.41c-.05-.48-.11-1-.13-1.44a4.07 4.07 0 0 0-1.57-3.2 7.56 7.56 0 0 0-6.23-1.41 3.51 3.51 0 0 0 1 .25 12.28 12.28 0 0 1 3.48.88 4.82 4.82 0 0 1 1 .69.63.63 0 0 1 .19.79c-.2.26-.46 0-.68-.14a10 10 0 0 0-1.59-.82 8.38 8.38 0 0 0-5.92 0 5.23 5.23 0 0 0-2.51 1.9c.94-.15 1.45-.76 2.13-1a3.36 3.36 0 0 1 2.22-.16c-1.81 1.07-3.69 2-4.3 4.27s.67 5.07 2.21 5.33c-1.81-3.23-2-4.28-.95-5.45.3 2.12 1 3.89 2.86 5a10.55 10.55 0 0 0 5.7 1.24 8.12 8.12 0 0 0-2.61-.68 7.55 7.55 0 0 1-3.15-1.34c-.19-.15-.4-.38-.27-.6s.39-.08.61 0c.87.27 1.69.65 2.56.92a6.94 6.94 0 0 0 7.13-1.33 2.93 2.93 0 0 0 1.16-1.63c-.64.44-1.31.92-1.98 1.39zm-4-1.74a4.18 4.18 0 0 1-3.73.07 1.73 1.73 0 0 1-.82-1.86 2.37 2.37 0 0 1 1.64-1.37 9.82 9.82 0 0 1 1.09-.06 2.88 2.88 0 0 1 1.83.48c1.22.92 1.24 1.87-.01 2.74zM203.88 62.32a3.54 3.54 0 0 0 .65-.44c.2-.18.42-.4.22-.68s-.43-.13-.66 0a1.94 1.94 0 0 0-1 1 1.56 1.56 0 0 1-.79.71c-.27.13-.58.25-.76-.06s.14-.54.38-.73a.36.36 0 0 1 .31 0c.37.06.43-.3.57-.52a.26.26 0 0 0-.07-.33c-.25-.2-.47 0-.66.1a2.55 2.55 0 0 0-.95 1 1 1 0 0 1-.42.46c-.13.08-.27.15-.4 0s-.08-.26 0-.39.16-.23.23-.36a1 1 0 0 0 0-.92c-.2-.3-.5.06-.76.13a3.09 3.09 0 0 0-.84.54c-.37.23-.46.68-.79.93-.17.12-.31.45-.59.18a.5.5 0 0 1 0-.66 5.9 5.9 0 0 1 .5-.62c.64-.84.78-1.31.58-2A4.19 4.19 0 0 0 197 62c-.14.44-.28 1 .19 1.34s.78-.26 1.19-.54c.51 1.19.89.08 1.31-.06.1.25-.11.57.18.69s.48-.16.68-.32.27-.23.42-.36c.13.34.25.69.58.75.59.09.87-.49 1.32-.75.1.38.24.72.65.71a1.41 1.41 0 0 0 1.2-.9 3.76 3.76 0 0 0-.56.3c-.22.11-.48.21-.62-.08s.14-.35.34-.46zm-5.45-2.13a2.32 2.32 0 0 1-.78 1.37 2.11 2.11 0 0 1 .78-1.37zm.88 2.48c-.12.07-.25.22-.38.1a.32.32 0 0 1 0-.45 2.24 2.24 0 0 1 1.15-.67 2.8 2.8 0 0 1-.77 1.02zm5.16-1.24a1.87 1.87 0 0 1-.94.83 1 1 0 0 1 .94-.83zM232.8 62.8a1.42 1.42 0 0 0 .68-.87c.07-.38.06-.88-.24-1.06s-.37.34-.56.53-.55.62-.86.89-.42.52-.84.44a1.72 1.72 0 0 1 .49-.83c.14-.17.31-.37.12-.58s-.37 0-.54.11c-.44.26-.73.7-1.15 1a1.88 1.88 0 0 1 .22-.45c.1-.19.5-.35.24-.56s-.44.17-.62.34-.27.66-.76.77a2.35 2.35 0 0 1 .13-.4.7.7 0 0 0-.21-1c-.28-.2-.6 0-.85.22a1.58 1.58 0 0 0-.59.71 1.09 1.09 0 0 1-.43.56c-.19.12-.41.23-.6.06s0-.38.13-.54a2.88 2.88 0 0 0 .32-.39c.08-.17.37-.36.12-.55s-.43 0-.56.2c-.3.4-.58.82-.87 1.23l.11.12c.47.66 1 .79 1.53.09.11-.13.19 0 .25.11.27.48.6.43 1 .18s.68-.86 1.05 0c.09.21.28 0 .39-.13.27-.29.44-.67.84-.88 0 .43-.6.88-.14 1.18s.65-.35 1-.54h.14a.73.73 0 0 0 .77.63c.57 0 .92-.44 1.41-1-.48.18-.68.5-1.12.41zm-4.34-.29a.42.42 0 0 1-.32.41c-.12 0-.25.06-.32-.06s-.06-.34 0-.53a1.46 1.46 0 0 1 .73-.64 7.75 7.75 0 0 0-.09.82zm4.08.15c-.19 0-.41-.24-.37-.35a1 1 0 0 1 .58-.58c.21-.06.19.21.22.38s-.13.52-.43.55zM211.57 62.67c-.21-.26.15-.5.29-.73s.17-.19.2-.29.1-.36-.05-.39a2.45 2.45 0 0 0-1.1-.09.61.61 0 0 0-.4.76c.14.43-.15.47-.39.59-.11-.17 0-.29 0-.43a.78.78 0 0 0-.23-.91c-.29-.21-.6 0-.85.2a2.37 2.37 0 0 0-.66.84c-.12.28-.32.62-.67.46s-.37-.52-.12-.89a15.64 15.64 0 0 0 .83-1.43.73.73 0 0 0 0-.88c-.55.62-.63 1.51-1.16 2-.76.73-.55 1.7-.88 2.52a1.2 1.2 0 0 0 0 .5c0 .2.06.4.28.46a.45.45 0 0 0 .44-.18 2.25 2.25 0 0 0 .75-1.52c0-.28.21-.38.39-.46s.19.19.28.29.41.42.68.22c.52-.4 1.25-.52 1.61-1.16a.6.6 0 0 1 .65-.29c-.06.11-.11.18-.15.26-.22.37-.55.85-.11 1.15s.67-.29 1-.53a1 1 0 0 0 .16-.24c-.36-.05-.57.5-.79.17zm-4.24 1.39a.69.69 0 0 1-.37.4.5.5 0 0 1-.17-.58c.09-.25 0-.62.32-.74a.29.29 0 0 1 .25.1.85.85 0 0 1-.03.82zm2.14-1.54a.4.4 0 0 1-.34.41.35.35 0 0 1-.26-.06c-.21-.17 0-.36 0-.53a1.08 1.08 0 0 1 .67-.6c-.01.26-.06.53-.07.78zM221.37 61.36zM221.36 61.37l.01-.01-.01.01zM223.57 62.73c-.11-.44.27-.68.42-1s.43-.41.15-.61-.41.16-.56.33a4.59 4.59 0 0 1-1.35 1.23c0-.7.8-.82.82-1.4-.37-.19-.6 0-.79.3a9.31 9.31 0 0 1-.61.89c-.18.2-.38.65-.73.37s-.15-.59.1-.88.4-.3.35-.59l-.39.25a2.26 2.26 0 0 1 .75-1.4c.09.49-.34.75-.36 1.14a2 2 0 0 0 .73-1.36c0-.14.06-.31-.09-.39s-.27.06-.37.16a5.23 5.23 0 0 0-1.27 2.23c-.08.22 0 .51-.37.54-.13-.25.16-.45.08-.68s0-.82-.58-.68a1.54 1.54 0 0 0-1.2 1.22.85.85 0 0 0 .3.91c.33.24.55 0 .83-.16s.78-.7 1 .14c.06.22.32.24.5.15.41-.19.76-.78 1.28-.15a.8.8 0 0 0 .3-.15c.17-.16.32-.33.5-.53 0 .3-.28.72.12.78s.79-.42 1.18-.84c-.31-.01-.47.24-.74.18zm-4.23-.19c0 .31-.23.45-.47.38s-.17-.37-.1-.55a1.17 1.17 0 0 1 .72-.67c-.05.3-.12.57-.15.84zM221.36 61.36v.01-.01zM196.13 59.32a5 5 0 0 0-1.92.11 1.3 1.3 0 0 0-1.12 1.17 9.59 9.59 0 0 1 2.07-.55c-.52.65-.68 1.41-1.49 1.63-.19 0-.4.27-.3.43.32.51-.08.86-.2 1.26 0 .17-.2.36.08.48a.71.71 0 0 0 .4-.49c.08-.78.58-.81 1.21-.83a2.26 2.26 0 0 0 2.23-1.71 1.17 1.17 0 0 0-.96-1.5zm.16 2.08a2.19 2.19 0 0 1-1.87.44c.59-.26.48-.89.74-1.33a.72.72 0 0 1 .84-.44c.29 0 .6.08.7.4a.85.85 0 0 1-.41.93zM218.46 60.14c.1-.38-.11-.54-.46-.54h-.58a3.2 3.2 0 0 0-1.86.48 1.2 1.2 0 0 0-.51 1.13c0 .4.47.45.77.57s.83.22 1.23.38c.2.07.39.23.09.47a3.68 3.68 0 0 1-2.36.22c-.23-.12-.41 0-.57.24s-.05.39.19.52a4 4 0 0 0 3-.4.79.79 0 0 0-.12-1.37 6.24 6.24 0 0 0-1.34-.53c-.14 0-.38 0-.4-.23s.2-.34.36-.4a2.41 2.41 0 0 1 1.86-.21.45.45 0 0 0 .7-.33zM190.07 62.36a5 5 0 0 0 .77-.53.49.49 0 0 0 .16-.65c-.15-.22-.39-.11-.59 0a2.24 2.24 0 0 0-1.17 1.12c-.15.27-.46.58-.72.41s.09-.46.24-.67l.09-.11c.13-.17.33-.35.1-.56s-.41 0-.56.16c-.35.31-.68.64-1 1-.07-.37.2-.51.35-.71.48-.66 1-1.31 1.45-2 .12-.15.35-.38.11-.56s-.34.1-.46.23a14.66 14.66 0 0 0-1.84 2.57 1.37 1.37 0 0 0-.11.77c0 .16-.05.36.18.41s.26-.09.35-.21a2.8 2.8 0 0 1 .75-.79c0 .39-.47.84-.09 1.07s.68-.38 1.06-.54c.57 1 1.08.95 1.87-.2-.2.11-.4.24-.61.33s-.45.13-.56-.13.05-.31.23-.41zm.62-1a1.17 1.17 0 0 1-.84.88c.04-.48.36-.63.84-.89zM186.61 59.18a5.51 5.51 0 0 0-2.21.21 1 1 0 0 0-.76 1.09c0 .49.42.24.67.28-.06-.14-.28-.31.07-.38a5.86 5.86 0 0 1 2.46-.27c0 .23-.15.31-.24.44a13.05 13.05 0 0 0-1.51 2.45c-.07.2-.29.49 0 .64s.45-.16.52-.37a12.87 12.87 0 0 1 1.59-3 .72.72 0 0 0-.59-1.09z"/><path class="cls-2" d="M225.57 62.68c-.22 0-.56.5-.63-.07a1.21 1.21 0 0 1 .46-1c.67-.55.68-.53.79-1.49a4.47 4.47 0 0 1-1.41.83c-.16 0-.34.41-.2.45.62.22.16.44 0 .64-.29.45-.46 1-.13 1.38s.72-.22 1-.44c.06 0 .09-.1.14-.16 0-.01-.03-.05-.02-.14z"/><path class="cls-2" d="M225.57 62.68c0 .09 0 .13.11.12zM227.22 60.93a.39.39 0 0 0 .37-.43c0-.15-.12-.18-.25-.19a.41.41 0 0 0-.33.4.19.19 0 0 0 .21.22zM221.36 61.36v.01l.01-.01h-.01zM221.36 61.37zM221.36 61.35z"/></svg>