<svg id="Layer_1" data-name="Layer 1" xmlns="http://www.w3.org/2000/svg" viewBox="0 0 352 92"><defs><style>.cls-1{fill:#81cc29}.cls-2{fill:#7c7c7c}.cls-3{fill:#345905}</style></defs><path class="cls-1" d="M153.52 43.16a22.7 22.7 0 0 1 4-.57.37.37 0 0 1 .26 0c.1.07.25.19.24.28a8 8 0 0 1-.18 1.19 24.21 24.21 0 0 1-1.29 4 15.67 15.67 0 0 1-1.35 2.48 9.28 9.28 0 0 1-2.54 2.57 16.36 16.36 0 0 1-6.81 2.74.61.61 0 0 1-.27 0 .35.35 0 0 1-.23-.1.26.26 0 0 1 0-.24c.25-.38.49-.76.76-1.11 1.13-1.4 2.31-2.75 3.53-4.07a4.45 4.45 0 0 0 .38-.55c.06-.09 0-.12-.07-.1a.56.56 0 0 0-.23.07c-.43.32-.86.64-1.27 1a33.57 33.57 0 0 0-2.85 2.87 6.93 6.93 0 0 1-.68.64h-.12c-.04 0-.09 0-.09-.08a1.72 1.72 0 0 1 0-.39 16.62 16.62 0 0 1 1.29-5.36 7.82 7.82 0 0 1 3.73-3.92 18 18 0 0 1 3.79-1.35zM143.13 53.94c0 .17-.09.32-.19.3a.57.57 0 0 1-.23-.08 1.92 1.92 0 0 1-.28-.29c-.4-.43-.78-.87-1.2-1.28-.8-.79-1.61-1.56-2.44-2.31a7.78 7.78 0 0 0-.89-.61h-.1a.17.17 0 0 0 0 .11c.13.18.26.37.4.53l3.52 4.08a9.91 9.91 0 0 1 .71 1 .52.52 0 0 1 0 .37.34.34 0 0 1-.25.07 8.87 8.87 0 0 1-2.1-.41 18 18 0 0 1-4.3-1.9 10.65 10.65 0 0 1-3.85-4.06 21.9 21.9 0 0 1-2.17-6.35 2.25 2.25 0 0 1 0-.26c0-.1.17-.26.28-.27h.26a23 23 0 0 1 6.19 1.24 12.28 12.28 0 0 1 2.38 1.18 7.24 7.24 0 0 1 2.47 2.63 15.75 15.75 0 0 1 1.79 6.31zM140.08 40.05a9.77 9.77 0 0 1 .47-2.79 19.88 19.88 0 0 1 2.24-5c.25-.42.53-.83.81-1.24a.37.37 0 0 1 .58 0c.25.37.5.74.73 1.13a19.53 19.53 0 0 1 2.34 5.43 16.75 16.75 0 0 1 .35 2 8.67 8.67 0 0 1-.35 3.2 11.75 11.75 0 0 1-1.67 3.52c-.22.34-.45.67-.69 1a.41.41 0 0 1-.33.18c-.1 0-.19-.12-.2-.3-.05-1.17-.09-2.33-.16-3.5a10.92 10.92 0 0 0-.19-2.14.16.16 0 0 0-.21-.13.19.19 0 0 0-.08.07 2.79 2.79 0 0 0-.07.4l-.24 5v.4a.42.42 0 0 1-.13.21.16.16 0 0 1-.24 0 1.16 1.16 0 0 1-.2-.18 12.53 12.53 0 0 1-2.56-5.73c-.1-.58-.14-1.04-.2-1.53z"/><path class="cls-1" d="M125.53 39.52a7.59 7.59 0 0 1-.08 1.07 21 21 0 0 0-.13 6.18 17.65 17.65 0 0 0 1.14 4.29 19.24 19.24 0 0 0 9.93 10.53 18.37 18.37 0 0 0 5.3 1.5 19.19 19.19 0 0 0 5.91-.09 18.78 18.78 0 0 0 4.63-1.41 2.54 2.54 0 0 1 .51-.13c.11 0 .14 0 .09.08s-.05.08-.08.1a6.78 6.78 0 0 1-.78.54 18.93 18.93 0 0 1-8 2.54A18.92 18.92 0 0 1 129.21 59a18.41 18.41 0 0 1-4.83-9.77 20 20 0 0 1-.21-4.17 16.61 16.61 0 0 1 1.13-5.25c0-.11.17-.19.25-.28z"/><path class="cls-1" d="M133.41 57c.19.1.4.2.59.31a17.86 17.86 0 0 0 9.51 2.54 18.43 18.43 0 0 0 5.07-.61 18.93 18.93 0 0 0 8.23-4.67 18.58 18.58 0 0 0 3.32-4.22 19.94 19.94 0 0 0 2.37-6.7c.09-.62.21-1.23.32-1.85 0 0 .07 0 .14-.1a13.16 13.16 0 0 1 0 2.94 18.64 18.64 0 0 1-4 10.13 20.55 20.55 0 0 1-3.48 3.37 5.44 5.44 0 0 1-.55.39 19.51 19.51 0 0 1-9.05 3.19 18.08 18.08 0 0 1-5.87-.51 18.52 18.52 0 0 1-5.54-2.43 6.29 6.29 0 0 1-1.5-1.13c-.05-.23-.34-.17-.43-.36a.42.42 0 0 1-.24-.23.56.56 0 0 1-.25-.23.78.78 0 0 1-.24-.24 1.18 1.18 0 0 1-.25-.25c0-.41.17-.46.47-.22a.85.85 0 0 1 .28.22.77.77 0 0 0 .29.22c.09.22.37.14.48.31a.7.7 0 0 0 .33.13zM128.77 61.37A18.53 18.53 0 0 1 121 50.11a11.24 11.24 0 0 1-.36-3.06V45.3a16.44 16.44 0 0 1 1.72-7.39 18.52 18.52 0 0 1 5.6-6.78 15.28 15.28 0 0 1 5.09-2.69c.36-.11.77-.36.85.3a21.31 21.31 0 0 0-3.58 2.14 19.22 19.22 0 0 0-7.25 11 18.33 18.33 0 0 0-.48 5.76 19 19 0 0 0 3 9 17.78 17.78 0 0 0 2.81 3.43l1 .94c0 .13.07.25.24.24 0 .26-.09.4-.37.36l-.21-.11a.81.81 0 0 1-.29-.13z"/><path class="cls-1" d="M133.93 28.74a.45.45 0 0 0-.37-.26h-.48a.65.65 0 0 1 .2-.17 18.58 18.58 0 0 1 3.61-.85 3.05 3.05 0 0 1 .52 0c-.11.22-.3.24-.46.3l-2.75 1a.8.8 0 0 1-.27-.02zM129.28 61.69l.37-.36a1.35 1.35 0 0 1 .37.13c.56.37 1.12.74 1.66 1.13a2.16 2.16 0 0 1 .32.4 1.71 1.71 0 0 1-.51 0 8.62 8.62 0 0 1-2.07-1.06.8.8 0 0 1-.14-.24zM132 56c-.18 0-.36 0-.47.22a1.75 1.75 0 0 1-.24-.11 7.1 7.1 0 0 1-1.57-2s0-.08.05-.11.07 0 .09 0a1.91 1.91 0 0 1 .32.24c.54.61 1.22 1.12 1.82 1.76zM132.6 57.29c.23 0 .4.11.43.36a.46.46 0 0 1-.43-.36zM133.06 56.78a.41.41 0 0 1-.48-.31.47.47 0 0 1 .48.31zM125.55 39.54l.09-.3v.09l-.14.19zM132 63a1.6 1.6 0 0 1 .23 0h.1c-.01 0-.08.14-.17.08A.83.83 0 0 1 132 63zM132.32 57a.26.26 0 0 1 .24.23c-.15.03-.22-.05-.24-.23zM133.41 57a.31.31 0 0 1-.33-.2.33.33 0 0 1 .33.2zM132 56.77a.28.28 0 0 1 .25.23.23.23 0 0 1-.25-.23zM131.77 56.5a.26.26 0 0 1 .24.24.23.23 0 0 1-.24-.24zM132.57 56.46a.26.26 0 0 1-.29-.22.29.29 0 0 1 .29.22zM131.49 56.23a.27.27 0 0 1 .25.25.25.25 0 0 1-.25-.25zM132.27 56.24A.28.28 0 0 1 132 56a.26.26 0 0 1 .27.24zM129.61 61.29c-.16 0-.24-.08-.24-.24a.26.26 0 0 1 .24.24zM128.77 61.37a.28.28 0 0 1 .3.21.27.27 0 0 1-.3-.21z"/><path class="cls-2" d="M231 35.55a.55.55 0 0 0-.64.27 2.1 2.1 0 0 0-.13.26c-.08.18-.15.37-.24.55a12 12 0 0 1-1.45 2.37 3.71 3.71 0 0 1-.51.54 1.62 1.62 0 0 1-.44.27.44.44 0 0 1-.55-.25 2.44 2.44 0 0 1-.17-.8 7.51 7.51 0 0 1 0-1.34 9.63 9.63 0 0 1 .2-1.4v-.07a.58.58 0 0 0-.35-.67.54.54 0 0 0-.66.33c-.11.2-.18.41-.28.61-.31.68-.61 1.36-.94 2-.17.35-.4.68-.61 1a3.93 3.93 0 0 1-.7.77.89.89 0 0 1-.47.22.4.4 0 0 1-.37-.19 1 1 0 0 1-.09-.28 3.18 3.18 0 0 1 .06-1.19 5.74 5.74 0 0 1 .82-1.9 4.2 4.2 0 0 1 2.95-2 1.45 1.45 0 0 0 .35-.12.53.53 0 0 0 .26-.5.49.49 0 0 0-.44-.44h-.3a4.45 4.45 0 0 0-2.13.81 5.53 5.53 0 0 0-1.06.93 1.1 1.1 0 0 1-.49.33.8.8 0 0 0-.49.43c-.1.17-.19.35-.28.53-.18.4-.37.81-.55 1.22a12.89 12.89 0 0 1-.79 1.52 3.92 3.92 0 0 1-.71.86 2.18 2.18 0 0 1-2 .52 4.09 4.09 0 0 1-1.48-.69.27.27 0 0 1-.08-.33c.21-.34.42-.67.62-1a10.94 10.94 0 0 0 1.14-2.16 3.67 3.67 0 0 0 .22-1.25.54.54 0 0 0 0-.14 1.19 1.19 0 0 0-1.62-1.11 3.32 3.32 0 0 0-.54.25 5.13 5.13 0 0 0-.6.44 9.79 9.79 0 0 0-1.46 1.52l-.92 1.27s-.08 0-.12.05-.09 0-.09-.09c0-.48-.05-1-.07-1.42-.08-1.31-.17-2.63-.22-3.94-.07-1.71-.11-3.43-.17-5.14a4.53 4.53 0 0 0 0-.52.47.47 0 0 0-.47-.39.49.49 0 0 0-.55.48v.67c0 1.71.13 3.42.18 5.14 0 1.31.11 2.63.16 3.94a.76.76 0 0 1 0 .15c.12.91.09 1.84.14 2.75a1.05 1.05 0 0 1-.17.71 1.84 1.84 0 0 0-.22.47 1.28 1.28 0 0 0 .28 1.38l.21.21a.45.45 0 0 1 .14.33c.05.59.1 1.19.14 1.78.07.92.13 1.83.2 2.75a1.8 1.8 0 0 1 0 .22c.08.87.17 1.73.25 2.6s.13 1.53.2 2.3q0 .33.09.66a1 1 0 0 0 .09.29.52.52 0 0 0 .55.28.53.53 0 0 0 .41-.47v-.6c-.05-.64-.12-1.28-.18-1.93s-.16-1.53-.23-2.29-.13-1.69-.19-2.53v-.22c-.07-.84-.14-1.68-.22-2.52v-.08c0-.29 0-.35.29-.44a4.54 4.54 0 0 0 1.6-.94l.22-.2a.28.28 0 0 1 .34 0l.52.31a4.88 4.88 0 0 0 1.14.52 3.23 3.23 0 0 0 1.69.14 3.53 3.53 0 0 0 1.57-.81 7.08 7.08 0 0 0 .88-1c.05-.06.16-.06.18 0s.13.33.21.48a1.29 1.29 0 0 0 1.27.75 1.74 1.74 0 0 0 .78-.2 3.28 3.28 0 0 0 .59-.45 7.75 7.75 0 0 0 1-1.21 1.94 1.94 0 0 1 .2-.21h.06a1.53 1.53 0 0 1 .11.27 2.18 2.18 0 0 0 .45.93 1.29 1.29 0 0 0 1.41.42 2.38 2.38 0 0 0 .8-.39 4.84 4.84 0 0 0 .81-.76 12.44 12.44 0 0 0 2-3.39.78.78 0 0 0 0-.14.58.58 0 0 0-.34-.69zm-16.7 4.82a1.67 1.67 0 0 1-1 .65.28.28 0 0 1-.29-.17.15.15 0 0 0 0-.07v-.52a.38.38 0 0 1 .25-.26 1.4 1.4 0 0 1 .94.12.19.19 0 0 1 .08.25zm1.23-1.37a3.25 3.25 0 0 1-.23.29s-.09 0-.15.06l-.2-.06a4.94 4.94 0 0 0-1.2-.38c-.1 0-.13-.13-.08-.23a11.94 11.94 0 0 1 .67-1.07 12.58 12.58 0 0 1 1.7-2 3.07 3.07 0 0 1 .72-.52.24.24 0 0 1 .36.23.82.82 0 0 1 0 .22 5.75 5.75 0 0 1-.2.71 11.44 11.44 0 0 1-1.39 2.75zM210.9 35.06a.87.87 0 0 0-.34-.12 1.5 1.5 0 0 0-.81.11 3.73 3.73 0 0 0-1.25.79 7.54 7.54 0 0 0-1.4 1.73c-.07.1-.13.21-.21.31a.14.14 0 0 1-.12 0s-.07-.07-.08-.11c0-.5-.07-1-.11-1.49 0-.14 0-.29-.05-.44a.55.55 0 0 0-.55-.41.47.47 0 0 0-.47.48v2.08a1.3 1.3 0 0 1-.11.58 12.1 12.1 0 0 1-1.68 2.81 3.48 3.48 0 0 1-.46.48 1.79 1.79 0 0 1-.45.25.37.37 0 0 1-.4-.13 1.1 1.1 0 0 1-.17-.32 1.67 1.67 0 0 1-.06-.44 11.91 11.91 0 0 1 .13-2.6 3.8 3.8 0 0 0 .06-.59.45.45 0 0 0-.14-.34.52.52 0 0 0-.73 0 1.78 1.78 0 0 0-.29.52c-.27.61-.53 1.23-.8 1.84a10.38 10.38 0 0 1-.86 1.48 4.27 4.27 0 0 1-.7.77 1.22 1.22 0 0 1-.39.21.39.39 0 0 1-.45-.16.75.75 0 0 1-.11-.28 3 3 0 0 1 0-1 5.87 5.87 0 0 1 1.26-2.59 4 4 0 0 1 2.31-1.39l.51-.13a.5.5 0 0 0 .34-.52.56.56 0 0 0-.49-.49.81.81 0 0 0-.22 0 5.2 5.2 0 0 0-2.94 1.47 7.27 7.27 0 0 0-.68.79 1.18 1.18 0 0 1-.3.33 10 10 0 0 1-.9.52 1.64 1.64 0 0 1-.49.15 1.52 1.52 0 0 1-1.36-.45c-.27-.26-.52-.54-.77-.81a1.14 1.14 0 0 0-.41-.31.56.56 0 0 0-.73.33.94.94 0 0 0-.06.29v.6a10.38 10.38 0 0 1-.11 2.89 3.61 3.61 0 0 1-.21.71 1.55 1.55 0 0 1-.29.43.64.64 0 0 1-.93 0 1.83 1.83 0 0 1-.43-.69 5.83 5.83 0 0 1-.33-1.37 17.69 17.69 0 0 1-.18-1.77 1.11 1.11 0 0 0-.08-.36.47.47 0 0 0-.46-.31.48.48 0 0 0-.48.28 2.91 2.91 0 0 0-.16.5c-.22.76-.42 1.53-.65 2.29-.12.38-.28.75-.42 1.12l-.06.13c-.06.11-.16.17-.23.15a.19.19 0 0 1-.14-.15 3.8 3.8 0 0 1-.25-1.24 12.63 12.63 0 0 1 .09-3.19 2.9 2.9 0 0 0 0-.59.32.32 0 0 0-.15-.24.52.52 0 0 0-.84.27 5.73 5.73 0 0 0-.2 1.17v1.79a8.06 8.06 0 0 0 .18 1.77 10.37 10.37 0 0 0 .31 1 1.44 1.44 0 0 0 .44.6.84.84 0 0 0 .61.21.91.91 0 0 0 .55-.21 2.53 2.53 0 0 0 .67-1l.42-1h.06c.06 0 .1 0 .12.05s.1.23.15.34a3.7 3.7 0 0 0 .45.94 1.71 1.71 0 0 0 2.17.62 1.87 1.87 0 0 0 .78-.67 3.27 3.27 0 0 0 .43-.95 6.29 6.29 0 0 0 .29-1.68v-.89a.16.16 0 0 1 .26-.13l.31.2a2.44 2.44 0 0 0 1.93.34h.07a.2.2 0 0 1 .21.24 4.86 4.86 0 0 0-.13 1.47 2.05 2.05 0 0 0 .27 1 1.24 1.24 0 0 0 .92.69 1.61 1.61 0 0 0 1-.16 2.86 2.86 0 0 0 .66-.48 6 6 0 0 0 1.07-1.33.35.35 0 0 1 .1-.11.06.06 0 0 1 .07 0 .07.07 0 0 1 .05 0c.07.21.13.42.21.63a1.75 1.75 0 0 0 .49.73 1.08 1.08 0 0 0 .74.31 1.71 1.71 0 0 0 .86-.18 3.69 3.69 0 0 0 1.27-1c.23-.27.42-.56.63-.84l.18-.24c.06-.08.15-.11.18-.06s.07.08.07.12v1a1 1 0 0 0 .11.43.57.57 0 0 0 .57.25.45.45 0 0 0 .38-.41c0-.27.05-.54.07-.81a6.53 6.53 0 0 1 .46-2 12.49 12.49 0 0 1 .63-1.27 6.19 6.19 0 0 1 1.29-1.63 2.08 2.08 0 0 1 1.32-.62.72.72 0 0 0 .28-.07.5.5 0 0 0 .32-.46.45.45 0 0 0-.04-.36zM183.39 33.76a6.06 6.06 0 0 0-1.4-1.54 6.14 6.14 0 0 0-4.91-1.22l-.73.12a.19.19 0 0 1-.22-.15 2.88 2.88 0 0 0-.1-.51.47.47 0 0 0-.44-.34.5.5 0 0 0-.51.36 2.09 2.09 0 0 0-.08.36 5.61 5.61 0 0 1-.06.59.49.49 0 0 1-.16.24.84.84 0 0 1-.26.15 7.14 7.14 0 0 0-1.26.78 4.37 4.37 0 0 0-1.32 1.6 1.15 1.15 0 0 0-.08.28.49.49 0 0 0 .26.5.51.51 0 0 0 .61-.08 2.18 2.18 0 0 0 .26-.36 4.15 4.15 0 0 1 1.55-1.48.22.22 0 0 1 .14 0s.1 0 .1.08a2.22 2.22 0 0 1 0 .44c0 .8-.08 1.59-.11 2.38-.06 1.89 0 3.78.13 5.66 0 .48.09.94.11 1.42 0 .77.17 1.53.24 2.29 0 .22 0 .45.08.67s0 .19.06.29a.53.53 0 0 0 .86.2.42.42 0 0 0 .14-.33c0-.39 0-.79-.08-1.19-.11-.86-.23-1.72-.26-2.59a2.3 2.3 0 0 0 0-.37 16.12 16.12 0 0 1-.12-2.08c0-.5 0-1-.05-1.49s0-.7 0-1c0-.45 0-.9.05-1.34 0-.77 0-1.54.07-2.31 0-.32.06-.64.08-1a.46.46 0 0 1 .37-.48 4 4 0 0 1 1-.2 10 10 0 0 1 1.34 0 4.63 4.63 0 0 1 2.71 1.13 6 6 0 0 1 1.79 2.6 7.63 7.63 0 0 1 .46 2.63 9.06 9.06 0 0 1-1 4.31 11.23 11.23 0 0 1-5.53 5.22 5.58 5.58 0 0 1-1.19.41 4.55 4.55 0 0 1-2.85-.13 1.11 1.11 0 0 0-.37-.07.49.49 0 0 0-.49.53.52.52 0 0 0 .3.48 4.94 4.94 0 0 0 2.62.43 8.32 8.32 0 0 0 2.7-.8 12.38 12.38 0 0 0 5.7-5.38 9.71 9.71 0 0 0 1.11-6.27 8.19 8.19 0 0 0-1.26-3.44z"/><path class="cls-3" d="M179.33 61.71a.12.12 0 0 0-.12-.13h-3.58a.13.13 0 0 0-.1.1.25.25 0 0 0 0 .08v.51c0 .17 0 .19.21.2h2.46a.09.09 0 0 1 .09.1 2.74 2.74 0 0 1-.18.75 2.43 2.43 0 0 1-1.69 1.5 3.49 3.49 0 0 1-1.73 0 2.76 2.76 0 0 1-1.46-.86 2.89 2.89 0 0 1-.67-1.3 4.45 4.45 0 0 1-.06-1.78 3.17 3.17 0 0 1 .26-.86 2.77 2.77 0 0 1 1.84-1.56 3.47 3.47 0 0 1 1.47-.07 2.78 2.78 0 0 1 1.87 1.15l.12.16a.12.12 0 0 0 .14 0l.72-.39s.05-.09 0-.14a3.55 3.55 0 0 0-1.92-1.52 4.53 4.53 0 0 0-2.42-.15 3.71 3.71 0 0 0-2.94 2.56 5.05 5.05 0 0 0-.25 1.81 4.93 4.93 0 0 0 .29 1.52 3.6 3.6 0 0 0 1.81 2.06 4.3 4.3 0 0 0 3.19.28 2.84 2.84 0 0 0 1.63-1.19c0-.05.06-.14.13-.12s.05.13.05.2v.66c0 .6-.08.5.51.51h.2a.1.1 0 0 0 .07 0 .15.15 0 0 0 .06 0 1.11 1.11 0 0 0 0-.19V62c.01-.08.01-.19 0-.29zM222.47 57.61a.11.11 0 0 0-.1-.09h-.82a.13.13 0 0 0-.1.1V63.98c0 .13 0 0-.05.05l-.21-.28-3.89-5.81-.19-.29a.26.26 0 0 0-.26-.13H216c-.09 0-.14.07-.15.16v7.72c0 .42 0 .41.4.4h.2c.49 0 .43 0 .43-.44V59.25c0-.01.06 0 .07 0a3.62 3.62 0 0 1 .22.32l3.88 5.81.19.29a.2.2 0 0 0 .17.09h.85c.1 0 .15-.05.15-.14V58c.08-.15.07-.27.06-.39z"/><path d="M205.55 59.62a3.27 3.27 0 0 0-2.17-1.93 4.4 4.4 0 0 0-1.19-.18h-2.65a.11.11 0 0 0-.1.1v7.79a3 3 0 0 0 0 .31.06.06 0 0 0 .05 0h2.84a4 4 0 0 0 1-.15 3.21 3.21 0 0 0 2.13-1.74 4.57 4.57 0 0 0 .44-1.49 6 6 0 0 0 0-1.47 4.57 4.57 0 0 0-.35-1.24zm-.87 3.26a3 3 0 0 1-.32.79 2.32 2.32 0 0 1-1.21 1 2.44 2.44 0 0 1-.8.17h-1.75a.14.14 0 0 1-.11-.1V58.84a2.44 2.44 0 0 1 0-.27.13.13 0 0 1 .08-.08h1.64a3.06 3.06 0 0 1 .73.1 2.31 2.31 0 0 1 1.52 1.24 3 3 0 0 1 .27.81 5 5 0 0 1-.05 2.24z" style="fill:#355905"/><path class="cls-3" d="m196.55 65.49-1.64-2.65-.16-.27a.1.1 0 0 1 .05-.13l.33-.12a2.19 2.19 0 0 0 1.32-1.53 3.39 3.39 0 0 0 0-1.55 1.9 1.9 0 0 0-1-1.32 2.61 2.61 0 0 0-.69-.27 4.78 4.78 0 0 0-1.19-.14h-2.27c-.37 0-.36 0-.36.37v7.8a.11.11 0 0 0 .1.1h.77c.13 0 .17 0 .17-.16V62.7a.15.15 0 0 1 .13-.12h1.29a.23.23 0 0 1 .2.1l.21.37 1.41 2.43.14.24a.17.17 0 0 0 .14.07h1s.06-.06 0-.09.1-.14.05-.21zm-2.46-3.87a4.89 4.89 0 0 1-.54 0h-1.32a.13.13 0 0 1-.14-.11V58.65a.43.43 0 0 1 0-.11.13.13 0 0 1 .1-.11h1.67a2.41 2.41 0 0 1 .8.15 1.07 1.07 0 0 1 .71.72 2.23 2.23 0 0 1 0 1.42 1.24 1.24 0 0 1-.78.77 3.51 3.51 0 0 1-.5.13zM185.82 58.09c-.26-.71-.08-.56-.83-.58h-.51a.19.19 0 0 0-.18.13l-.12.33-1.74 4.71c-.34.94-.69 1.88-1 2.82a1.74 1.74 0 0 0-.05.22v.06h.93a.13.13 0 0 0 .09-.06.59.59 0 0 0 .06-.14l.54-1.51c.09-.26.09-.25.35-.25h3.39a.14.14 0 0 1 .12.09l.08.18c.16.45.32.9.49 1.35l.09.26a.13.13 0 0 0 .12.08h.9a.08.08 0 0 0 .06-.08c0-.11-.07-.22-.11-.33-.89-2.43-1.78-4.85-2.68-7.28zm.59 4.79h-2.69a.58.58 0 0 1-.19 0 1.29 1.29 0 0 1 0-.19c.16-.45.32-.9.49-1.36.28-.79.56-1.58.85-2.38a.91.91 0 0 1 .07-.14.06.06 0 0 1 .06 0 1.42 1.42 0 0 1 .08.18l1.32 3.7.06.19h-.05zM231.19 62.91a1.79 1.79 0 0 0-.78-1 3.78 3.78 0 0 0-.63-.33 11.65 11.65 0 0 0-1.14-.37c-.29-.08-.58-.15-.87-.24a3.56 3.56 0 0 1-.62-.23 2.9 2.9 0 0 1-.29-.19 1 1 0 0 1-.4-.56 1.22 1.22 0 0 1 .55-1.35 1.73 1.73 0 0 1 .39-.18 2.58 2.58 0 0 1 1-.1 2.32 2.32 0 0 1 .68.16 1.76 1.76 0 0 1 .93.85l.09.21s.09.09.13.08l.79-.2s.07-.09.06-.13a2.2 2.2 0 0 0-.48-.92 2.62 2.62 0 0 0-1.17-.76 3.58 3.58 0 0 0-1.34-.2h-.35a3.16 3.16 0 0 0-1.43.45 2 2 0 0 0-.93 1.3 2.39 2.39 0 0 0 0 .66 1.7 1.7 0 0 0 .62 1.29 2.8 2.8 0 0 0 .35.25 3.88 3.88 0 0 0 .78.35l1.09.31.89.29a2.46 2.46 0 0 1 .62.33 1.11 1.11 0 0 1 .39.47 1.28 1.28 0 0 1-.52 1.6 1.87 1.87 0 0 1-.51.2 2.94 2.94 0 0 1-1.5 0 2 2 0 0 1-1.35-1.19v-.11a.16.16 0 0 0-.16-.09l-.8.19a.14.14 0 0 0-.08.16 2.44 2.44 0 0 0 1 1.46 3.42 3.42 0 0 0 1.41.54 4.9 4.9 0 0 0 1.48 0 3.26 3.26 0 0 0 1.27-.47 2 2 0 0 0 .7-.77 2.31 2.31 0 0 0 .13-1.76z"/><path d="M209.93 58.48h2.5a2 2 0 0 0 .65 0c.06 0 .07-.11.06-.69 0-.16 0-.21-.21-.21h-4.06c-.12 0-.17.05-.17.16v8a.13.13 0 0 0 .13.12H213a.08.08 0 0 0 .08-.07v-.78a.1.1 0 0 0-.07-.08h-3.16a.88.88 0 0 1 0-.16v-2.26a.37.37 0 0 1 0-.11.12.12 0 0 1 .1-.1h2.73s.11-.06.11-.1v-.74s-.06-.09-.11-.09h-2.77a.1.1 0 0 1 0-.07v-2.68a.13.13 0 0 1 .02-.14z" style="fill:#355906"/></svg>