<svg id="Layer_1" data-name="Layer 1" xmlns="http://www.w3.org/2000/svg" viewBox="0 0 352 92"><defs><style>.cls-1{fill:#ec2224}</style></defs><path class="cls-1" d="M192.45 50.8H175l8.71-15.09-7.71-13.4L150.8 66h50.4zM165.7 62.74l-1.12-3.15a.16.16 0 00-.3 0l-1.12 3.15h-.74l1.24-3.45a.7.7 0 01.29-.39.9.9 0 01.48-.13 1 1 0 01.48.13.7.7 0 01.29.39l1.23 3.45zm5.87-3.27h-.92v3.27H170v-3.27h-1v-.7h2.59zm6.56 3.27h-.7v-1.65h-1.84v1.65h-.7v-4h.7v1.66h1.84v-1.63h.7zm6.07-.48a.67.67 0 01-.29.38 1 1 0 01-1 0 .7.7 0 01-.29-.38l-1.23-3.49h.73l1.16 3.23a.15.15 0 00.05.09h.16l.06-.09 1.12-3.18h.73zm5.23.48h-.7v-4h.7z"/><path class="cls-1" d="M201.16 35.72h-17.42l8.71 15.08 8.71-15.08zM150.8 68.25h50.4v1.44h-50.4z"/></svg>