<?xml version="1.0" encoding="utf-8"?>
<!-- Generator: Adobe Illustrator 23.0.1, SVG Export Plug-In . SVG Version: 6.00 Build 0)  -->
<svg version="1.1" id="banner-curve" xmlns="http://www.w3.org/2000/svg" xmlns:xlink="http://www.w3.org/1999/xlink" x="0px"
	 y="0px" viewBox="0 0 1418 855" style="enable-background:new 0 0 1418 855;" xml:space="preserve">
<style type="text/css">
	.st0{display:none;}
</style>
<path class="st0" d="M1026.7,850.5c0,0-136.6-2.5-282-67.8c0,0-150.7-58.6-165.6-142.6c0,0-6.2-36,33.6-62.9c0,0,70.2-39.8,77.3-84
	c0,0,32.6-70.1-262.6-130.6c0,0-194.9-31.2-299-112.3c0,0-69.6-48-77.8-127.2c0,0-6.7-74.9,35-122.9H34.2c0,0-46,49.4-28.7,148.8
	c0,0,11,68.6,109.9,126.7c0,0,78.2,50.9,251,84.5c0,0,263,48.5,273.1,122.4c0,0,11.5,39.4-74.9,93.6c0,0-73.9,39.4-10.1,114.2
	c0,0,60.5,69.1,184.3,110.4C738.9,801,882.7,859.2,1026.7,850.5z"/>
<path d="M0,0v855C1116,616.8,912.9,0,912.9,0"/>
</svg>
