<svg xmlns="http://www.w3.org/2000/svg" version="1.1" xmlns:xlink="http://www.w3.org/1999/xlink" xmlns:svgjs="http://svgjs.com/svgjs" width="512" height="512" x="0" y="0" viewBox="0 0 64 64" style="enable-background:new 0 0 512 512" xml:space="preserve" class=""><g><path xmlns="http://www.w3.org/2000/svg" d="m58 32h-9l-4-2-6-4-2 2 7 5 6 3.12v23.88h8v-14h3v-11a3 3 0 0 0 -3-3z" fill="#6ea0de" data-original="#6ea0de"></path><path xmlns="http://www.w3.org/2000/svg" d="m32 14h13v14h-13z" fill="#d98285" data-original="#d98285"></path><circle xmlns="http://www.w3.org/2000/svg" cx="10" cy="27.5" fill="#7cb2f8" r="3.5" data-original="#7cb2f8"></circle><path xmlns="http://www.w3.org/2000/svg" d="m6 32h9l4-2 6-4 2 2-7 5-6 3.12v23.88h-8v-14h-3v-11a3 3 0 0 1 3-3z" fill="#7cb2f8" data-original="#7cb2f8"></path><circle xmlns="http://www.w3.org/2000/svg" cx="54" cy="27.5" fill="#6ea0de" r="3.5" data-original="#6ea0de"></circle><path xmlns="http://www.w3.org/2000/svg" d="m32 14v5h2a2.015 2.015 0 0 1 2 2 2.006 2.006 0 0 1 -2 2h-2v5h-13v-14z" fill="#ffe66d" data-original="#ffe66d" class=""></path><path xmlns="http://www.w3.org/2000/svg" d="m58 31h-1.206a4.5 4.5 0 1 0 -5.588 0h-1.97l-3.736-1.866-.271-.181a.986.986 0 0 0 .771-.953v-14a1 1 0 0 0 -1-1h-26a1 1 0 0 0 -1 1v14a.986.986 0 0 0 .768.953l-.271.181-3.733 1.866h-1.97a4.5 4.5 0 1 0 -5.588 0h-1.206a4 4 0 0 0 -4 4v11a1 1 0 0 0 1 1h2v13a1 1 0 0 0 1 1h8a1 1 0 0 0 1-1v-23.272l5.461-2.84a1.051 1.051 0 0 0 .12-.075l6.739-4.813h9.36l6.739 4.813a1.051 1.051 0 0 0 .12.075l5.461 2.84v23.272a1 1 0 0 0 1 1h8a1 1 0 0 0 1-1v-13h2a1 1 0 0 0 1-1v-11a4 4 0 0 0 -4-4zm-4-6a2.5 2.5 0 1 1 -2.5 2.5 2.5 2.5 0 0 1 2.5-2.5zm-44 0a2.5 2.5 0 1 1 -2.5 2.5 2.5 2.5 0 0 1 2.5-2.5zm9.476 7.146-5.937 3.086a1 1 0 0 0 -.539.888v22.88h-2v-14h-2v14h-2v-23h-2v9h-1v-10a2 2 0 0 1 2-2h9a1 1 0 0 0 .447-.1l4-2a1.168 1.168 0 0 0 .108-.063l2.745-1.837h1.58zm11.524-9.146v4h-11v-12h11v4a1 1 0 0 0 1 1h2a.975.975 0 0 1 .712.307.952.952 0 0 1 .288.693 1 1 0 0 1 -1 1h-2a1 1 0 0 0 -1 1zm2 4v-3h1a3 3 0 0 0 3-3 3.017 3.017 0 0 0 -3-3h-1v-3h11v12zm27 18h-1v-9h-2v23h-2v-14h-2v14h-2v-22.88a1 1 0 0 0 -.539-.888l-5.937-3.086-4.404-3.146h1.58l2.748 1.832a1.168 1.168 0 0 0 .108.063l4 2a1 1 0 0 0 .444.105h9a2 2 0 0 1 2 2z" fill="#000000" data-original="#000000" class=""></path><path xmlns="http://www.w3.org/2000/svg" d="m31 3h2v4h-2z" fill="#000000" data-original="#000000" class=""></path><path xmlns="http://www.w3.org/2000/svg" d="m36.364 6.636h4v2h-4z" transform="matrix(.707 -.707 .707 .707 5.837 29.364)" fill="#000000" data-original="#000000" class=""></path><path xmlns="http://www.w3.org/2000/svg" d="m24.636 5.636h2v4h-2z" transform="matrix(.707 -.707 .707 .707 2.11 20.366)" fill="#000000" data-original="#000000" class=""></path></g></svg>